<?xml version="1.0" encoding="utf-8"?>
<!-- Generator: Adobe Illustrator 26.3.1, SVG Export Plug-In . SVG Version: 6.00 Build 0)  -->
<svg version="1.1" id="Capa_1" xmlns="http://www.w3.org/2000/svg" xmlns:xlink="http://www.w3.org/1999/xlink" x="0px" y="0px"
	 viewBox="0 0 20 20" style="enable-background:new 0 0 20 20;" xml:space="preserve">
<style type="text/css">
	.st0{fill:#FFFFFF;}
</style>
<path class="st0" d="M17.3,7.49c-0.04-0.52-0.07-1.03-0.13-1.54c-0.1-1.09-1-1.9-2.08-1.9c0,0-0.01,0-0.01,0
	c-0.48-0.01-0.97,0-1.45,0l-0.89,0c0-0.17,0-0.32,0-0.47c0.01-1.19-0.68-2.29-1.78-2.81c-0.3-0.13-0.61-0.23-0.93-0.3
	C10,0.46,9.96,0.45,9.93,0.45c-0.01,0-0.03,0-0.04,0H9.41c-0.03,0-0.11,0.01-0.14,0.02L9.01,0.52C7.55,0.84,6.52,2.17,6.57,3.67
	c0.01,0.12,0.01,0.25,0,0.37h-2.6C2.84,4.06,1.92,4.97,1.88,6.09l-0.54,7.03c-0.05,0.68-0.11,1.35-0.15,2
	c-0.07,0.52-0.07,1.05-0.01,1.58c0.15,1.08,0.83,1.99,1.85,2.46c0.31,0.12,0.64,0.21,1.06,0.28h11.04c0.04,0,0.08,0,0.11-0.01
	l0.21-0.05c0.15-0.04,0.3-0.07,0.49-0.13c0.61-0.24,1.13-0.68,1.43-1.2c0.43-0.55,0.64-1.23,0.59-1.92L17.3,7.49z M8.58,4.03
	c0-0.36,0.06-0.71,0.17-1.05C8.77,2.95,8.79,2.93,8.8,2.91c0.36-0.47,1.04-0.57,1.52-0.21c0.21,0.15,0.34,0.39,0.36,0.63
	c0.01,0.23,0.01,0.46,0,0.69L8.58,4.03z M14.92,17.41c-3.48-0.01-6.95-0.01-10.43,0c-0.03,0-0.07,0-0.1,0
	c-0.32-0.02-0.61-0.17-0.82-0.41c-0.21-0.24-0.31-0.55-0.29-0.88l0.6-7.91c0.05-0.68,0.1-1.36,0.16-2.13h2.54l0,0.78
	C6.54,7.26,6.77,7.65,7.12,7.8c0.36,0.19,0.8,0.14,1.15-0.13C8.52,7.44,8.64,7.1,8.61,6.81V6.08h2.09l0,0.78
	c-0.03,0.42,0.22,0.81,0.62,0.98c0.13,0.05,0.26,0.07,0.4,0.07c0.58-0.02,1.03-0.5,1.02-1.05c0-0.24,0-0.48,0-0.72V6.07l0.63,0
	c0.6,0,1.2,0,1.8,0c0.01,0,0.01,0,0.02,0c0.11,0,0.16,0.01,0.17,0.01c0.01,0.02,0.02,0.07,0.03,0.2l0.24,3.2
	c0.04,0.52,0.08,1.03,0.11,1.54l0.29,3.74c0.04,0.49,0.07,0.98,0.09,1.45C16.12,16.87,15.58,17.41,14.92,17.41z"/>
</svg>
