<?xml version="1.0" encoding="utf-8"?>
<!-- Generator: Adobe Illustrator 26.3.1, SVG Export Plug-In . SVG Version: 6.00 Build 0)  -->
<svg version="1.1" id="Capa_1" xmlns="http://www.w3.org/2000/svg" xmlns:xlink="http://www.w3.org/1999/xlink" x="0px" y="0px"
	 viewBox="0 0 20 20" style="enable-background:new 0 0 20 20;" xml:space="preserve">
<style type="text/css">
	.st0{fill:#85CAC8;}
</style>
<g>
	<path class="st0" d="M7.38,17.37c-0.22,0-0.43,0-0.67,0c0.05-0.9,0.49-1.51,1.29-1.88c-0.08-0.29-0.33-0.47-0.63-0.46
		c-0.34,0.01-0.57,0.23-0.66,0.67c-0.1,0-0.21,0-0.32,0c-0.1,0-0.21,0-0.34,0c0.02-0.14,0.02-0.27,0.07-0.38
		c0.05-0.13,0-0.18-0.1-0.23C5.79,15,5.59,15,5.37,15.13c0.2,0.26,0.34,0.55,0.34,0.89c-0.22,0-0.43,0-0.65,0
		C5.04,15.96,5.02,15.89,5,15.82c-0.1-0.29-0.38-0.48-0.68-0.45c-0.3,0.02-0.56,0.25-0.6,0.55c-0.01,0.11,0.03,0.24,0.07,0.35
		c0.09,0.24,0.2,0.48,0.31,0.76c-0.29,0-0.5,0-0.73,0C3.37,17,3.36,16.96,3.35,16.92c-0.09-0.35-0.38-0.57-0.72-0.54
		c-0.33,0.03-0.57,0.28-0.61,0.64c-0.03,0.26-0.14,0.36-0.39,0.37c-0.31,0-0.61,0-0.94,0c0-0.22,0-0.43,0-0.66c0.23,0,0.45,0,0.68,0
		c0.31-0.86,1-1.12,1.61-0.99c0.2-0.26,0.35-0.53,0.57-0.73c0.29-0.27,0.66-0.34,1.06-0.28c0.09,0.01,0.19-0.03,0.28-0.07
		c0.16-0.08,0.32-0.18,0.48-0.27c0-0.43,0-0.88,0-1.36c-0.07,0-0.15,0-0.22,0C4.49,13,3.83,13.03,3.18,12.96
		c-1.58-0.16-2.97-1.54-3.13-3.13C-0.02,9.19,0,8.53,0.01,7.88C0.02,7.4,0.44,6.98,0.92,6.97c1.07-0.01,2.14,0.01,3.21,0.03
		c0.17,0,0.34,0.08,0.51,0.1c0.07,0.01,0.17-0.01,0.21-0.06C5.68,6.05,6.74,5.6,8.03,5.62c0.77,0.01,1.54,0,2.31,0
		c0.67,0,1.1,0.42,1.09,1.09c-0.01,0.66,0.03,1.33-0.08,1.97c-0.31,1.76-1.83,2.98-3.61,2.99c-0.1,0-0.21,0-0.32,0
		c0,0.9,0,1.78,0,2.67c0.06,0.01,0.13,0.02,0.19,0.03c0.5,0.09,0.85,0.37,1.04,0.84c0.04,0.1,0.08,0.15,0.2,0.16
		c0.24,0.03,0.48,0.09,0.73,0.14C9.6,15.35,9.62,15.17,9.64,15c0.07-0.45,0.23-0.88,0.46-1.27c0.66-1.15,1.32-2.31,1.98-3.46
		c0.17-0.3,0.3-0.34,0.62-0.18c0.32,0.16,0.64,0.32,0.97,0.49c0.25-0.48,0.5-0.95,0.74-1.43c0.02-0.04,0.01-0.12-0.02-0.17
		c-0.19-0.47-0.16-0.93,0.07-1.38c0.83-1.59,1.66-3.19,2.5-4.77c0.43-0.8,1.37-1.09,2.16-0.68c0.79,0.41,1.11,1.36,0.69,2.18
		c-0.82,1.6-1.66,3.18-2.5,4.77c-0.23,0.44-0.59,0.72-1.07,0.84c-0.07,0.02-0.14,0.07-0.17,0.13c-0.24,0.44-0.47,0.89-0.72,1.36
		c0.1,0.05,0.19,0.1,0.28,0.14c0.31,0.16,0.63,0.31,0.94,0.47c0.23,0.12,0.29,0.28,0.18,0.5c-0.61,1.3-1.22,2.59-1.83,3.89
		c-0.01,0.02-0.01,0.04-0.01,0.04c0.23-0.02,0.48-0.08,0.71-0.05c0.52,0.06,0.89,0.35,1.09,0.84c0.05,0.12,0.1,0.15,0.23,0.15
		c0.66-0.01,1.32,0,1.97,0c0.08,0,0.15,0,0.24,0c0,0.22,0,0.43,0,0.66c-0.05,0-0.11,0.01-0.17,0.01c-0.8,0-1.6,0-2.39,0
		c-0.32,0-0.41-0.08-0.45-0.4c-0.06-0.47-0.53-0.74-0.95-0.55c-0.11,0.05-0.17,0.1-0.12,0.24c0.04,0.11,0.04,0.23,0.07,0.36
		c-0.24,0-0.45,0-0.66,0c-0.11-0.45-0.35-0.67-0.71-0.66c-0.34,0.01-0.57,0.24-0.66,0.66c-0.21,0-0.42,0-0.67,0
		c0.04-0.18,0.07-0.36,0.11-0.55c-0.28-0.15-0.57-0.14-0.87,0c0.04,0.19,0.07,0.37,0.11,0.56c-0.24,0-0.45,0-0.6,0
		c-0.14-0.2-0.23-0.39-0.38-0.53c-0.09-0.09-0.27-0.12-0.41-0.12c-0.34,0-0.56,0.23-0.65,0.65c-0.21,0-0.43,0-0.66,0
		c0.02-0.52,0.26-0.9,0.68-1.16c-0.23-0.38-0.8-0.58-1.3-0.47C7.84,16.2,7.47,16.65,7.38,17.37z M6.61,14.66
		c0.04-0.09,0.11-0.18,0.11-0.26c0.01-1.25,0.02-2.51,0-3.76c-0.02-1.61-1.38-2.97-2.98-3c-0.89-0.02-1.78-0.01-2.67,0
		c-0.26,0-0.39,0.12-0.39,0.38c0,0.45-0.02,0.91,0,1.36c0.06,1.2,0.62,2.08,1.68,2.64c0.06,0.03,0.12,0.05,0.18,0.08
		c-0.4-0.43-0.73-0.9-0.94-1.44c-0.21-0.54-0.29-1.1-0.24-1.67c0.23,0,0.44,0,0.66,0c0,0.14,0,0.26,0,0.39
		c0.02,1.36,1,2.59,2.33,2.87c0.41,0.09,0.83,0.07,1.25,0.09c0.34,0.01,0.45,0.11,0.45,0.46c0,0.53,0,1.06,0,1.58
		C6.23,14.46,6.39,14.55,6.61,14.66z M12.59,10.78c-0.03,0.02-0.04,0.03-0.05,0.04c-0.66,1.15-1.33,2.3-1.97,3.47
		c-0.29,0.53-0.37,1.13-0.27,1.73c0.02,0.12,0.11,0.29,0.21,0.34c0.2,0.1,0.44,0.14,0.67,0.2c0.43-0.78,0.86-1.57,1.29-2.36
		c0.21,0.12,0.39,0.22,0.59,0.32c-0.34,0.62-0.67,1.23-0.98,1.8c0.27,0.08,0.52,0.14,0.77,0.24c0.1,0.04,0.16,0.04,0.27,0
		c0.21-0.08,0.45-0.2,0.66-0.17c0.35,0.06,0.47-0.13,0.59-0.37c0.05-0.11,0.11-0.21,0.16-0.32c0.4-0.85,0.8-1.71,1.2-2.56
		c0.1-0.21,0.19-0.42,0.3-0.64c-0.33-0.17-0.65-0.32-0.98-0.49c-0.04,0.07-0.07,0.13-0.11,0.19c-0.18,0.35-0.36,0.69-0.55,1.04
		c-0.14,0.26-0.35,0.44-0.64,0.49c-0.38,0.07-0.7-0.04-0.93-0.34c-0.23-0.3-0.27-0.64-0.1-0.99c0.2-0.41,0.42-0.81,0.64-1.24
		C13.09,11.03,12.84,10.9,12.59,10.78z M10.07,7.64c0.06,1.23-0.34,2.25-1.25,3.12c0.09-0.02,0.12-0.02,0.14-0.03
		c0.98-0.47,1.59-1.23,1.74-2.31c0.08-0.56,0.04-1.13,0.05-1.7c0-0.33-0.11-0.44-0.44-0.44c-0.83,0-1.66-0.01-2.5,0
		c-0.24,0-0.49,0.03-0.73,0.09c-0.66,0.15-1.21,0.5-1.66,1.03c1.29,0.77,1.94,1.9,1.98,3.41c1.41-0.62,2.05-1.69,2.01-3.19
		C9.64,7.64,9.85,7.64,10.07,7.64z M19.35,3.58c-0.03-0.44-0.31-0.81-0.72-0.93c-0.43-0.12-0.87,0.08-1.09,0.5
		c-0.83,1.57-1.65,3.14-2.47,4.71c-0.26,0.5-0.1,1.05,0.36,1.3c0.47,0.26,1.03,0.08,1.3-0.43c0.83-1.57,1.65-3.14,2.47-4.71
		C19.27,3.89,19.3,3.73,19.35,3.58z M14.92,9.66c-0.02,0.02-0.04,0.04-0.04,0.06c-0.51,0.97-1.02,1.94-1.52,2.91
		c-0.02,0.04-0.05,0.08-0.05,0.11c0.03,0.1,0.04,0.24,0.11,0.28c0.08,0.04,0.22,0.01,0.32-0.03c0.05-0.02,0.08-0.11,0.11-0.17
		c0.49-0.93,0.97-1.85,1.46-2.78c0.02-0.05,0.04-0.1,0.06-0.14C15.21,9.81,15.07,9.74,14.92,9.66z"/>
</g>
</svg>
