<?xml version="1.0" encoding="utf-8"?>
<!-- Generator: Adobe Illustrator 26.3.1, SVG Export Plug-In . SVG Version: 6.00 Build 0)  -->
<svg version="1.1" id="Capa_1" xmlns="http://www.w3.org/2000/svg" xmlns:xlink="http://www.w3.org/1999/xlink" x="0px" y="0px"
	 viewBox="0 0 20 20" style="enable-background:new 0 0 20 20;" xml:space="preserve">
<style type="text/css">
	.st0{fill:#FFFFFF;}
</style>
<path id="Trazado_861" class="st0" d="M10.02,19.97c-1.8,0-3.61,0.01-5.41,0c-2.46,0.07-4.51-1.87-4.58-4.33c0-0.04,0-0.09,0-0.13
	c-0.04-3.68-0.04-7.36,0-11.04C0.04,2,2.05,0,4.53,0.01c0.04,0,0.08,0,0.12,0c3.57,0,7.14,0,10.7,0c2.51-0.05,4.58,1.93,4.63,4.44
	c0,0.06,0,0.12,0,0.18c0.01,3.58,0.01,7.16,0,10.74c0.06,2.24-1.55,4.17-3.75,4.53c-0.75,0.09-1.51,0.12-2.27,0.08
	C12.65,19.98,11.33,19.97,10.02,19.97z M12.15,18.88h0.45c0.91,0,1.82-0.02,2.72,0.01c1.87,0.07,3.45-1.37,3.55-3.24
	c0.03-3.77,0.03-7.54,0-11.3c-0.06-1.75-1.45-3.15-3.2-3.22c-0.89-0.04-1.79-0.02-2.69-0.02c-2.86,0-5.72-0.03-8.58,0.02
	C2.55,1.16,1.09,2.69,1.12,4.54v0.01c0,3.62,0,7.24,0,10.86c-0.03,1.89,1.47,3.44,3.35,3.47c0.03,0,0.05,0,0.08,0
	c1.48,0.01,2.96,0,4.44,0c0.1,0,0.19-0.01,0.3-0.02v-5.91H6.95v-2.81h2.37c0-0.19,0-0.35,0-0.5C9.28,8.93,9.3,8.22,9.37,7.51
	c0.41-2.59,3.03-3.58,5.54-2.94v2.37c-0.59,0-1.14-0.02-1.7,0.01c-0.48,0-0.9,0.34-0.99,0.81c-0.06,0.78-0.02,1.57-0.02,2.4h2.52
	c-0.11,0.84-0.22,1.64-0.3,2.44c-0.03,0.29-0.14,0.38-0.42,0.37c-0.6-0.02-1.21-0.01-1.84-0.01L12.15,18.88z"/>
</svg>
