<?xml version="1.0" encoding="utf-8"?>
<!-- Generator: Adobe Illustrator 26.3.1, SVG Export Plug-In . SVG Version: 6.00 Build 0)  -->
<svg version="1.1" id="Capa_1" xmlns="http://www.w3.org/2000/svg" xmlns:xlink="http://www.w3.org/1999/xlink" x="0px" y="0px"
	 viewBox="0 0 20 20" style="enable-background:new 0 0 20 20;" xml:space="preserve">
<style type="text/css">
	.st0{fill:#85CAC8;}
</style>
<g>
	<path class="st0" d="M0.02,19.59c0.09-0.16,0.23-0.2,0.41-0.2c0.61,0.01,1.22,0.01,1.83,0c0.08,0,0.17-0.06,0.24-0.11
		c0.2-0.13,0.37-0.31,0.59-0.4c0.2-0.09,0.36-0.19,0.5-0.34c0.12-0.13,0.28-0.22,0.42-0.34c0.05-0.04,0.1-0.11,0.1-0.16
		c0.03-1.1,0.06-2.21,0.08-3.31c0-0.03-0.01-0.05-0.01-0.07c-0.23-0.04-0.47-0.06-0.69-0.12c-0.79-0.22-1.35-0.72-1.68-1.47
		c-0.12-0.26-0.1-0.51,0.1-0.72c0.19-0.21,0.43-0.25,0.7-0.17c0.61,0.18,1.14,0.5,1.57,0.97c0.04,0.04,0.06,0.1,0.08,0.15
		c0.02-0.01,0.04-0.03,0.06-0.04c0.04-0.23,0.06-0.46,0.11-0.68c0.03-0.11,0.09-0.23,0.18-0.3c0.06-0.04,0.22-0.03,0.28,0.02
		c0.07,0.06,0.13,0.2,0.12,0.3c-0.05,0.5-0.12,0.99-0.18,1.49c-0.02,0.14-0.02,0.28-0.03,0.45c0.18-0.14,0.31-0.29,0.48-0.38
		c0.36-0.2,0.74-0.38,1.12-0.54c0.25-0.11,0.49-0.02,0.67,0.18c0.17,0.2,0.21,0.43,0.1,0.67c-0.43,0.97-1.17,1.51-2.23,1.6
		c-0.06,0.01-0.11,0.01-0.2,0.01c0,0.61,0,1.22,0,1.84c0.42-0.08,0.85-0.06,1.26,0.09c0.04,0.01,0.1-0.01,0.15-0.02
		c0.56-0.19,1.1-0.14,1.61,0.16c0.05,0.03,0.12,0.05,0.17,0.03c0.8-0.32,0.8-0.32,1.7-0.26c0.03-1.09,0.05-2.18,0.08-3.27
		c-0.18-0.02-0.37-0.03-0.55-0.07c-0.86-0.21-1.47-0.71-1.82-1.53c-0.11-0.25-0.09-0.49,0.09-0.69c0.18-0.21,0.42-0.27,0.69-0.19
		c0.62,0.18,1.15,0.5,1.59,0.97c0.04,0.04,0.08,0.08,0.14,0.15c0.04-0.27,0.08-0.51,0.12-0.74c0.04-0.23,0.16-0.33,0.34-0.31
		c0.19,0.03,0.27,0.18,0.24,0.42c-0.07,0.59-0.14,1.19-0.21,1.78c0,0.02,0,0.05,0,0.1c0.11-0.09,0.2-0.17,0.29-0.25
		c0.38-0.31,0.81-0.54,1.28-0.67c0.27-0.08,0.5-0.02,0.69,0.19c0.18,0.21,0.2,0.45,0.09,0.69c-0.44,0.97-1.19,1.5-2.25,1.58
		c-0.09,0.01-0.18-0.01-0.18,0.13c0,0.55-0.01,1.09-0.01,1.64c0,0.02,0.01,0.04,0.02,0.07c0.61-0.11,1.16,0.03,1.64,0.45
		c0.04-0.03,0.09-0.05,0.13-0.08c0.61-0.41,1.27-0.51,1.97-0.31c0.09,0.03,0.2,0.01,0.3,0c0.28-0.04,0.56-0.08,0.85-0.13
		c0.03-1.03,0.06-2.11,0.08-3.18c-0.23-0.04-0.46-0.06-0.68-0.12c-0.8-0.22-1.36-0.72-1.7-1.48c-0.11-0.26-0.09-0.5,0.09-0.71
		c0.19-0.21,0.42-0.26,0.69-0.18c0.6,0.18,1.13,0.49,1.56,0.95c0.04,0.05,0.08,0.1,0.16,0.19c0.04-0.26,0.08-0.47,0.11-0.67
		c0.01-0.06,0.02-0.12,0.03-0.17c0.05-0.18,0.18-0.26,0.35-0.22c0.15,0.03,0.24,0.16,0.22,0.34c-0.06,0.5-0.13,1-0.19,1.51
		c-0.02,0.13-0.02,0.27-0.03,0.44c0.06-0.05,0.1-0.07,0.13-0.1c0.4-0.37,0.87-0.64,1.39-0.8c0.28-0.09,0.53-0.06,0.73,0.16
		c0.21,0.23,0.21,0.49,0.08,0.76c-0.45,0.93-1.19,1.45-2.23,1.52c-0.05,0-0.1,0.01-0.2,0.01c0,0.33,0,0.65,0,0.97
		c0,0.29-0.01,0.58-0.01,0.88c0,0.05-0.01,0.13,0.02,0.15c0.21,0.15,0.4,0.35,0.64,0.42c0.47,0.15,0.85,0.38,1.13,0.78
		c0.07,0.1,0.13,0.13,0.25,0.13c0.6-0.01,1.2,0,1.79,0c0.27,0,0.42,0.11,0.41,0.3c-0.01,0.19-0.14,0.29-0.41,0.29
		c-4.67,0-9.34,0-14.02,0c-1.71,0-3.42,0-5.13,0c-0.18,0-0.32-0.05-0.41-0.2C0.02,19.72,0.02,19.65,0.02,19.59z M3.56,19.37
		c4.37,0,8.82,0,13.3,0c-0.22-0.2-0.45-0.28-0.7-0.34c-0.11-0.02-0.23-0.08-0.31-0.16c-0.41-0.43-0.95-0.55-1.5-0.33
		c-0.11,0.05-0.27,0.05-0.38,0.01c-0.68-0.24-1.28-0.13-1.81,0.35c-0.21,0.19-0.36,0.18-0.55-0.02c-0.4-0.44-0.95-0.56-1.49-0.33
		c-0.14,0.06-0.27,0.06-0.41,0.01c-0.56-0.22-1.1-0.15-1.6,0.18c-0.24,0.16-0.3,0.16-0.53-0.02c-0.4-0.31-0.84-0.37-1.3-0.18
		c-0.16,0.07-0.29,0.07-0.45,0.01c-0.68-0.26-1.45-0.06-1.91,0.48C3.8,19.17,3.65,19.29,3.56,19.37z M9.59,14.01
		c-0.19-0.55-1.11-1.22-1.72-1.28C7.93,13.33,8.83,14,9.59,14.01z M12.13,14.15c-0.71,0.13-1.59,0.81-1.71,1.3
		C11.19,15.43,12.07,14.76,12.13,14.15z M6.62,14.15c-0.65,0.08-1.58,0.78-1.72,1.29C5.63,15.45,6.51,14.8,6.62,14.15z M15.94,15.44
		c0.72,0.02,1.69-0.71,1.71-1.28C17.03,14.21,16.1,14.91,15.94,15.44z M2.33,12.69c0.17,0.72,1.11,1.4,1.75,1.3
		C3.7,13.29,3.1,12.92,2.33,12.69z M15.1,14c-0.11-0.47-1.03-1.21-1.71-1.28C13.45,13.33,14.39,14.02,15.1,14z"/>
	<path class="st0" d="M4.23,0.02c1.02,0.63,2.04,1.27,3.05,1.9c0.4,0.25,0.81,0.5,1.21,0.75c0.25,0.16,0.28,0.28,0.13,0.55
		C8.47,3.49,8.32,3.77,8.15,4.07c0.52,0.11,1.02,0.21,1.53,0.32c0.02-0.04,0.03-0.07,0.05-0.1c0.06-0.15,0.18-0.23,0.34-0.19
		c0.17,0.04,0.25,0.16,0.23,0.33c-0.06,0.41-0.12,0.82-0.19,1.23c-0.03,0.21-0.07,0.41-0.1,0.62c-0.04,0.27-0.12,0.39-0.29,0.4
		C9.55,6.69,9.45,6.58,9.36,6.27c-0.48,0-0.97,0-1.46,0c-0.27,0-0.55,0-0.82-0.02C6.95,6.24,6.88,6.29,6.82,6.4
		C6.4,7.15,5.97,7.9,5.55,8.65c-0.19,0.33-0.3,0.36-0.62,0.17C3.44,7.89,1.94,6.97,0.45,6.04c-0.31-0.19-0.34-0.3-0.13-0.61
		C0.58,5.05,0.83,4.67,1.1,4.27C0.55,3.79,0.24,3.19,0.24,2.46c0-0.54,0.17-1.02,0.5-1.44c0.61-0.78,1.79-1.17,2.92-0.59
		c0.12-0.14,0.25-0.27,0.37-0.41C4.1,0.02,4.17,0.02,4.23,0.02z M4.22,0.71C3.3,2.08,2.38,3.43,1.46,4.79
		C2.86,5.65,4.23,6.5,5.6,7.35C6.42,5.92,7.22,4.5,8.03,3.08C6.75,2.29,5.49,1.5,4.22,0.71z M5.31,7.87C3.92,7,2.53,6.14,1.13,5.28
		C1.05,5.4,0.98,5.5,0.9,5.63C2.31,6.5,3.7,7.36,5.1,8.23C5.18,8.1,5.24,7.99,5.31,7.87z M9.5,5.68c0.03-0.22,0.07-0.46,0.11-0.71
		C9.03,4.86,8.47,4.74,7.9,4.63C7.88,4.62,7.82,4.64,7.81,4.67C7.62,4.99,7.44,5.32,7.23,5.68C8.01,5.68,8.74,5.68,9.5,5.68z
		 M3.35,0.95C2.57,0.51,1.55,0.8,1.08,1.56c-0.44,0.73-0.27,1.78,0.36,2.2c0.07-0.11,0.14-0.21,0.22-0.32
		c-0.45-0.5-0.58-1.06-0.22-1.64c0.39-0.63,0.99-0.76,1.68-0.52C3.2,1.16,3.27,1.06,3.35,0.95z M2.77,1.8
		C2.4,1.7,2.08,1.83,1.92,2.13C1.78,2.4,1.83,2.72,2.03,2.89C2.28,2.53,2.52,2.17,2.77,1.8z"/>
	<path class="st0" d="M15.03,6.97c0,0.16-0.14,0.3-0.3,0.29c-0.16,0-0.29-0.14-0.28-0.31c0.01-0.16,0.13-0.28,0.29-0.28
		C14.9,6.67,15.03,6.8,15.03,6.97z"/>
	<path class="st0" d="M10.91,5.39c-0.16,0-0.29-0.14-0.28-0.31c0.01-0.16,0.14-0.29,0.31-0.28c0.16,0.01,0.28,0.14,0.28,0.29
		C11.21,5.26,11.07,5.39,10.91,5.39z"/>
	<path class="st0" d="M12.37,7.3c0,0.16-0.14,0.29-0.3,0.29c-0.17,0-0.29-0.14-0.28-0.3C11.79,7.12,11.92,7,12.07,7
		C12.23,7,12.37,7.14,12.37,7.3z"/>
	<path class="st0" d="M11.02,6.24c0,0.17-0.12,0.29-0.29,0.29c-0.16,0-0.3-0.14-0.29-0.3c0-0.15,0.14-0.28,0.29-0.29
		C10.89,5.95,11.02,6.08,11.02,6.24z"/>
	<path class="st0" d="M15.55,7.86c0.16,0,0.29,0.15,0.29,0.3c0,0.16-0.14,0.29-0.31,0.28c-0.16-0.01-0.28-0.13-0.28-0.29
		C15.26,8,15.39,7.86,15.55,7.86z"/>
	<path class="st0" d="M12.62,5.39c0,0.17-0.13,0.29-0.3,0.29c-0.16,0-0.28-0.13-0.29-0.28c0-0.16,0.13-0.3,0.29-0.3
		C12.49,5.09,12.62,5.22,12.62,5.39z"/>
	<path class="st0" d="M13.04,8.98c-0.16,0-0.28-0.13-0.28-0.29c0-0.16,0.13-0.3,0.29-0.3c0.15,0,0.28,0.13,0.29,0.29
		C13.34,8.85,13.2,8.99,13.04,8.98z"/>
	<path class="st0" d="M16.42,9.5c-0.01,0.16-0.15,0.29-0.31,0.29c-0.16-0.01-0.28-0.14-0.28-0.31c0.01-0.16,0.13-0.27,0.29-0.27
		C16.29,9.21,16.43,9.34,16.42,9.5z"/>
	<path class="st0" d="M13.85,10.32c0,0.16-0.15,0.3-0.3,0.29c-0.16,0-0.28-0.13-0.28-0.29c0-0.17,0.12-0.3,0.29-0.3
		C13.72,10.02,13.85,10.16,13.85,10.32z"/>
	<path class="st0" d="M13.64,6.31c-0.17,0-0.29-0.13-0.29-0.3c0-0.16,0.12-0.28,0.28-0.29c0.16-0.01,0.3,0.13,0.3,0.29
		C13.93,6.17,13.8,6.31,13.64,6.31z"/>
	<path class="st0" d="M6.86,4.21c0,0.01,0,0.01,0,0.02C6.65,4.59,6.46,4.95,6.24,5.3c-0.03,0.05-0.23,0.04-0.33,0
		c-0.13-0.06-0.17-0.21-0.1-0.34c0.16-0.32,0.33-0.63,0.53-0.92c0.05-0.07,0.22-0.12,0.32-0.1C6.75,3.96,6.82,4.09,6.9,4.17
		C6.88,4.19,6.87,4.2,6.86,4.21z"/>
</g>
</svg>
