<?xml version="1.0" encoding="utf-8"?>
<!-- Generator: Adobe Illustrator 26.3.1, SVG Export Plug-In . SVG Version: 6.00 Build 0)  -->
<svg version="1.1" id="Capa_1" xmlns="http://www.w3.org/2000/svg" xmlns:xlink="http://www.w3.org/1999/xlink" x="0px" y="0px"
	 viewBox="0 0 20 20" style="enable-background:new 0 0 20 20;" xml:space="preserve">
<style type="text/css">
	.st0{fill:#FFFFFF;}
</style>
<path id="Trazado_864" class="st0" d="M0.03,9.99c0-1.94-0.04-3.88,0.01-5.82c0.13-2.16,1.82-3.91,3.97-4.11
	C5.62-0.03,7.24,0.01,8.86,0c2.14,0,4.28,0,6.42,0c2.51-0.09,4.62,1.87,4.71,4.38c0,0.11,0,0.21,0,0.32c0,3.57,0,7.14,0,10.71
	c0.03,2.04-1.32,3.84-3.28,4.39c-0.42,0.12-0.85,0.18-1.28,0.19C11.84,20,8.25,20,4.67,20c-2.27,0.07-4.25-1.56-4.61-3.81
	c-0.03-0.2-0.05-0.39-0.05-0.59c-0.01-0.2,0-0.4,0-0.6L0.03,9.99L0.03,9.99z M18.89,9.98c0-1.78,0.01-3.56,0-5.34
	c0.07-1.88-1.4-3.46-3.28-3.53c-0.08,0-0.16,0-0.24,0c-3.61,0-7.22,0-10.82,0C2.65,1.1,1.11,2.62,1.1,4.51c0,0.01,0,0.02,0,0.04
	c0,3.58,0.03,7.17-0.01,10.75c-0.03,1.95,1.52,3.56,3.48,3.6c0.04,0,0.08,0,0.12,0c3.55-0.05,7.09-0.05,10.64,0
	c1.94,0.04,3.53-1.5,3.57-3.44c0-0.05,0-0.1,0-0.14C18.86,13.54,18.89,11.76,18.89,9.98L18.89,9.98z"/>
<path id="Trazado_865" class="st0" d="M10.01,3.85c1.04,0,2.09-0.03,3.13,0.01c1.59,0.1,2.87,1.35,3.02,2.94
	c0.07,1.86,0.04,3.73,0.04,5.6c0.04,0.57-0.04,1.14-0.23,1.68c-0.51,1.28-1.73,2.14-3.11,2.18c-1.92,0.02-3.83,0.02-5.75,0
	c-1.85-0.04-3.33-1.54-3.33-3.39c-0.02-1.89-0.02-3.78,0-5.68c0-1.79,1.42-3.27,3.21-3.34C7.99,3.8,9,3.84,10.01,3.85L10.01,3.85z
	 M10.04,15.16L10.04,15.16c0.92,0,1.84-0.02,2.76,0.01c1.31-0.02,2.35-1.08,2.34-2.39c-0.02-1.83-0.01-3.66-0.02-5.49
	c0.04-1.28-0.97-2.34-2.25-2.37c-0.04,0-0.07,0-0.11,0c-1.84-0.01-3.68-0.01-5.53,0c-1.25-0.04-2.3,0.95-2.34,2.22
	c0,0.04,0,0.09,0,0.13c-0.01,1.84-0.01,3.68,0,5.53c-0.05,1.26,0.94,2.31,2.19,2.36c0.05,0,0.1,0,0.16,0
	C8.17,15.17,9.11,15.16,10.04,15.16L10.04,15.16z"/>
<path id="Trazado_866" class="st0" d="M10,13.21c-1.75,0-3.17-1.42-3.18-3.17c0-1.75,1.42-3.17,3.17-3.18
	c1.75,0.01,3.17,1.42,3.19,3.17C13.18,11.79,11.76,13.21,10,13.21L10,13.21z M10,7.97c-1.14-0.01-2.07,0.91-2.08,2.05
	c0,0.01,0,0.03,0,0.04c0.07,1.14,1.05,2.02,2.2,1.95c1.05-0.06,1.89-0.9,1.95-1.95C12.09,8.93,11.2,8,10.06,7.97
	C10.04,7.97,10.02,7.97,10,7.97L10,7.97z"/>
</svg>
