<?xml version="1.0" encoding="utf-8"?>
<!-- Generator: Adobe Illustrator 26.3.1, SVG Export Plug-In . SVG Version: 6.00 Build 0)  -->
<svg version="1.1" id="Capa_1" xmlns="http://www.w3.org/2000/svg" xmlns:xlink="http://www.w3.org/1999/xlink" x="0px" y="0px"
	 viewBox="0 0 20 20" style="enable-background:new 0 0 20 20;" xml:space="preserve">
<style type="text/css">
	.st0{fill:#FFFFFF;}
</style>
<g id="Grupo_799" transform="translate(-4344 -184)">
	<path id="Trazado_996" class="st0" d="M4344.03,193.99c0-1.94-0.04-3.88,0.01-5.82c0.13-2.16,1.82-3.91,3.97-4.11
		c1.61-0.08,3.23-0.05,4.85-0.05c2.14-0.01,4.28,0,6.42,0c2.51-0.09,4.62,1.87,4.71,4.38c0,0.11,0,0.21,0,0.32
		c0,3.57,0,7.14,0,10.71c0.03,2.04-1.32,3.84-3.28,4.39c-0.42,0.12-0.85,0.18-1.29,0.19c-3.58,0.01-7.17,0.01-10.75,0.01
		c-2.27,0.07-4.25-1.56-4.61-3.81c-0.03-0.2-0.04-0.39-0.05-0.59s0-0.4,0-0.6L4344.03,193.99L4344.03,193.99z M4362.89,193.98
		c0-1.78,0.01-3.56,0-5.34c0.07-1.88-1.4-3.46-3.28-3.53c-0.08,0-0.16,0-0.24,0c-3.61,0-7.22,0-10.82,0
		c-1.89-0.01-3.43,1.52-3.43,3.41c0,0.01,0,0.02,0,0.04c0,3.58,0.03,7.17-0.01,10.75c-0.03,1.95,1.52,3.56,3.48,3.6
		c0.04,0,0.08,0,0.12,0c3.55-0.05,7.09-0.05,10.64,0c1.94,0.04,3.53-1.5,3.57-3.44c0-0.05,0-0.1,0-0.14
		C4362.86,197.54,4362.89,195.76,4362.89,193.98L4362.89,193.98z"/>
	<g id="Grupo_798" transform="translate(1.977 -1.649)">
		<path id="Trazado_997" class="st0" d="M4353.15,201.35h-2.66v-7.99h2.67v1.15l0.02,0.01c0.07-0.1,0.13-0.21,0.2-0.3
			c0.28-0.39,0.7-0.66,1.18-0.76c0.75-0.18,1.53-0.13,2.26,0.14c0.62,0.24,1.1,0.74,1.32,1.36c0.22,0.58,0.33,1.19,0.33,1.81
			c0.02,1.51,0.01,3.01,0.02,4.52c0,0.02,0,0.04,0,0.06h-2.67c0-0.05,0-0.09,0-0.13c0-1.28,0-2.55,0-3.83
			c0-0.27-0.02-0.53-0.07-0.79c-0.05-0.51-0.47-0.9-0.99-0.9c-0.28-0.03-0.57,0-0.83,0.1c-0.41,0.17-0.68,0.56-0.7,1
			c-0.05,0.39-0.07,0.78-0.07,1.18c-0.01,1.08,0,2.16,0,3.23L4353.15,201.35z"/>
		<path id="Trazado_998" class="st0" d="M4346.48,201.35v-7.99h2.66v7.99H4346.48z"/>
		<path id="Trazado_999" class="st0" d="M4347.81,192.02c-0.74,0-1.33-0.6-1.33-1.34c0-0.74,0.6-1.33,1.34-1.33
			c0.73,0,1.32,0.59,1.33,1.32c0.01,0.74-0.59,1.34-1.32,1.34C4347.82,192.02,4347.81,192.02,4347.81,192.02z"/>
	</g>
</g>
</svg>
