<?xml version="1.0" encoding="utf-8"?>
<!-- Generator: Adobe Illustrator 26.3.1, SVG Export Plug-In . SVG Version: 6.00 Build 0)  -->
<svg version="1.1" id="Capa_1" xmlns="http://www.w3.org/2000/svg" xmlns:xlink="http://www.w3.org/1999/xlink" x="0px" y="0px"
	 viewBox="0 0 20 20" style="enable-background:new 0 0 20 20;" xml:space="preserve">
<style type="text/css">
	.st0{fill:#85CAC8;}
</style>
<g>
	<path class="st0" d="M16.63,11.86c0.5,0,0.98-0.03,1.45,0.01c0.54,0.04,1.07,0.13,1.61,0.21c0.26,0.04,0.38,0.24,0.29,0.47
		c-0.85,2.13-2.29,3.63-4.57,4.22c-1.16,0.3-2.34,0.3-3.52,0.11c-0.58-0.09-1.15-0.26-1.72-0.39c-0.11-0.02-0.25-0.02-0.36,0.01
		c-1.35,0.41-2.73,0.59-4.13,0.45c-2.35-0.24-4.09-1.4-5.22-3.49c-0.14-0.27-0.27-0.55-0.39-0.83c-0.14-0.32-0.04-0.5,0.3-0.57
		c0.92-0.18,1.85-0.27,2.79-0.25c0.06,0,0.11,0,0.19,0c-0.02-0.06-0.03-0.12-0.04-0.16c-0.48-1.35-0.58-2.74-0.45-4.15
		c0.03-0.35,0.09-0.7,0.14-1.05C3.04,6.13,3.2,6.03,3.51,6.12c1.1,0.33,2.14,0.8,3.11,1.43c0.06,0.04,0.13,0.08,0.21,0.13
		C6.87,7.58,6.9,7.5,6.93,7.41c0.6-1.67,1.62-3.06,2.85-4.31c0.17-0.17,0.32-0.16,0.53,0.02c1.17,0.98,2.08,2.16,2.73,3.53
		c0.13,0.27,0.24,0.56,0.37,0.86c0.07-0.04,0.14-0.07,0.2-0.11c0.9-0.55,1.85-0.97,2.86-1.27c0.33-0.1,0.48,0,0.54,0.34
		c0.27,1.6,0.29,3.19-0.17,4.76C16.78,11.42,16.71,11.61,16.63,11.86z M0.82,12.66c0.01,0.05,0.01,0.08,0.02,0.11
		c0.76,1.62,1.93,2.79,3.69,3.31c1.1,0.32,2.22,0.34,3.34,0.18c0.56-0.08,1.11-0.22,1.69-0.33c-0.05-0.12-0.08-0.2-0.12-0.27
		c-0.64-1.28-1.66-2.12-2.98-2.61C4.63,12.35,2.74,12.39,0.82,12.66z M19.2,12.66c-0.31-0.04-0.6-0.08-0.89-0.11
		c-1.45-0.14-2.89-0.11-4.29,0.32c-1.52,0.46-2.73,1.31-3.46,2.76c-0.04,0.08-0.07,0.16-0.12,0.25c0.09,0.03,0.15,0.05,0.22,0.07
		c0.88,0.26,1.78,0.39,2.69,0.4c2.62,0.02,4.57-1.07,5.74-3.45C19.12,12.83,19.15,12.76,19.2,12.66z M9.44,14.38
		c0.06-0.54,0.12-1.06,0.17-1.59c0.01-0.13,0.01-0.26-0.02-0.38c-0.31-1.11-0.85-2.1-1.64-2.93C6.78,8.26,5.33,7.45,3.74,6.89
		C3.7,6.88,3.65,6.88,3.58,6.86c-0.04,0.45-0.09,0.89-0.1,1.32c-0.05,1.19,0.09,2.35,0.54,3.47c0.06,0.14,0.12,0.21,0.29,0.23
		c0.42,0.04,0.84,0.11,1.25,0.2c1.4,0.31,2.65,0.91,3.62,1.99C9.27,14.17,9.36,14.28,9.44,14.38z M10.56,14.38
		c0.04-0.04,0.08-0.09,0.12-0.15c0.46-0.56,1.01-1.03,1.66-1.38c1.05-0.56,2.18-0.89,3.37-0.98c0.15-0.01,0.21-0.07,0.27-0.2
		c0.46-1.13,0.6-2.3,0.55-3.51c-0.02-0.43-0.07-0.86-0.1-1.32c-0.07,0.02-0.1,0.03-0.14,0.04c-1.15,0.39-2.21,0.93-3.17,1.66
		c-1.26,0.96-2.21,2.16-2.67,3.7c-0.04,0.13-0.1,0.27-0.09,0.4C10.41,13.22,10.49,13.79,10.56,14.38z M10.06,3.79
		C10.04,3.8,10.02,3.81,10,3.83C9.86,3.99,9.71,4.14,9.57,4.31C8.64,5.38,7.89,6.56,7.45,7.93c-0.04,0.13-0.02,0.21,0.09,0.3
		c1.05,0.83,1.84,1.86,2.38,3.08c0.02,0.05,0.05,0.09,0.08,0.14c0.02-0.04,0.03-0.06,0.04-0.08c0.59-1.36,1.47-2.49,2.68-3.36
		c0.11-0.08,0.09-0.15,0.06-0.24C12.24,6.19,11.27,4.91,10.06,3.79z"/>
	<path class="st0" d="M3.99,8.09c0.23,0,0.44,0,0.66,0c0.04,0.75,0.23,1.46,0.62,2.14c-0.18,0.12-0.35,0.24-0.55,0.37
		C4.25,9.83,4.03,9,3.99,8.09z"/>
	<path class="st0" d="M16,8.09c-0.03,0.9-0.26,1.73-0.72,2.51c-0.19-0.13-0.36-0.24-0.55-0.37c0.38-0.67,0.58-1.38,0.61-2.14
		C15.56,8.09,15.77,8.09,16,8.09z"/>
	<path class="st0" d="M9.67,5.43c0.23,0,0.43,0,0.65,0c0,0.22,0,0.42,0,0.64c-0.22,0-0.43,0-0.65,0C9.67,5.85,9.67,5.65,9.67,5.43z"
		/>
	<path class="st0" d="M9.67,7.4c0-0.22,0-0.42,0-0.64c0.21,0,0.42,0,0.64,0c0,0.21,0,0.42,0,0.64C10.11,7.4,9.9,7.4,9.67,7.4z"/>
	<path class="st0" d="M10.32,8.74c-0.22,0-0.42,0-0.64,0c0-0.21,0-0.42,0-0.64c0.21,0,0.42,0,0.64,0
		C10.32,8.31,10.32,8.51,10.32,8.74z"/>
</g>
</svg>
