<?xml version="1.0" encoding="utf-8"?>
<!-- Generator: Adobe Illustrator 26.3.1, SVG Export Plug-In . SVG Version: 6.00 Build 0)  -->
<svg version="1.1" id="Capa_1" xmlns="http://www.w3.org/2000/svg" xmlns:xlink="http://www.w3.org/1999/xlink" x="0px" y="0px"
	 viewBox="0 0 20 20" style="enable-background:new 0 0 20 20;" xml:space="preserve">
<style type="text/css">
	.st0{fill:#85CAC8;}
</style>
<g>
	<path class="st0" d="M6.86-0.03C7.3,0.02,7.74,0.07,8.18,0.13c1.05,0.15,2.07,0.43,3.06,0.79c0.17,0.06,0.29,0.16,0.25,0.36
		c-0.04,0.2-0.19,0.25-0.37,0.25c-1.09,0.01-2.16,0.12-3.21,0.44C7.35,2.15,6.81,2.39,6.36,2.81C6.12,3.04,5.94,3.32,5.88,3.66
		C5.83,3.96,5.91,4.12,6.2,4.2c0.25,0.07,0.51,0.13,0.77,0.12c0.84-0.02,1.69-0.04,2.52-0.1c1.59-0.11,3.17-0.15,4.76,0.03
		c0.04,0,0.08,0.01,0.12,0.02c0.2,0.04,0.3,0.17,0.27,0.34c-0.02,0.17-0.16,0.27-0.36,0.25C14,4.84,13.72,4.8,13.44,4.78
		c-1.08-0.08-2.15-0.07-3.23-0.01C9.08,4.83,7.95,4.9,6.82,4.91C6.2,4.91,5.58,4.77,5,4.51C4.2,4.17,3.69,3.35,3.72,2.46
		c0.01-0.2,0.13-0.33,0.29-0.33c0.16,0,0.28,0.12,0.3,0.3C4.34,2.77,4.38,3.1,4.56,3.39c0.17,0.27,0.4,0.46,0.68,0.59
		C5.29,3.75,5.3,3.53,5.36,3.32c0.23-0.75,0.78-1.2,1.44-1.54c0.77-0.39,1.6-0.59,2.45-0.71c0.05-0.01,0.1-0.01,0.15-0.02
		c0.03,0,0.05-0.01,0.08-0.06C9.04,0.9,8.6,0.8,8.14,0.73C7.16,0.57,6.17,0.52,5.18,0.63C4.43,0.72,3.71,0.88,3.03,1.19
		c-0.08,0.03-0.15,0.07-0.23,0.1C2.61,1.36,2.45,1.3,2.38,1.14C2.32,0.99,2.37,0.83,2.55,0.75c0.39-0.16,0.78-0.35,1.19-0.45
		c0.55-0.14,1.12-0.2,1.67-0.3C5.48,0,5.54-0.01,5.61-0.03C6.02-0.03,6.44-0.03,6.86-0.03z"/>
	<path class="st0" d="M8.33,19.29c0.79-0.31,1.5-0.7,1.93-1.45c0.27-0.47,0.29-0.98,0.15-1.5c-0.15-0.55-0.29-1.1-0.19-1.72
		c-0.34,0.24-0.57,0.51-0.74,0.85c-0.03,0.07-0.06,0.14-0.1,0.21c-0.08,0.16-0.23,0.21-0.38,0.15c-0.15-0.06-0.22-0.22-0.16-0.39
		c0.14-0.4,0.37-0.75,0.69-1.03c0.84-0.76,1.85-1.19,2.96-1.3c0.93-0.09,1.88-0.08,2.82-0.13c0.26-0.01,0.52-0.06,0.77-0.1
		c0.23-0.04,0.38,0.04,0.42,0.21c0.04,0.19-0.06,0.34-0.3,0.37c-0.46,0.06-0.92,0.12-1.38,0.14c-0.74,0.04-1.49,0.04-2.23,0.09
		c-0.46,0.03-0.9,0.13-1.31,0.37c-0.33,0.2-0.52,0.49-0.51,0.87c0.02,0.38,0.08,0.77,0.17,1.13c0.33,1.28-0.05,2.32-1.12,3.08
		c-0.56,0.4-1.17,0.69-1.83,0.85c-0.1,0.03-0.27,0-0.33-0.07c-0.07-0.07-0.08-0.22-0.07-0.33c0.05-0.37,0.18-0.73,0.19-1.09
		c0.04-1.15-0.61-1.98-1.73-2.23c-0.42-0.09-0.85-0.12-1.28-0.15c-0.52-0.04-1.01-0.14-1.47-0.38c-1.61-0.86-1.89-2.93-0.58-4.23
		c0.62-0.62,1.4-0.92,2.24-1.09c0.22-0.04,0.44-0.07,0.66-0.1c0.2-0.03,0.35,0.07,0.38,0.24c0.03,0.17-0.08,0.3-0.29,0.35
		c-0.49,0.11-0.99,0.18-1.46,0.34c-0.7,0.24-1.26,0.67-1.58,1.38c-0.46,1.02,0.03,2.23,1.06,2.66c0.53,0.22,1.09,0.23,1.65,0.27
		c0.8,0.06,1.54,0.28,2.15,0.83c0.66,0.6,0.9,1.37,0.85,2.24C8.39,18.85,8.36,19.05,8.33,19.29z"/>
	<path class="st0" d="M11.73,9.71c0.56-0.2,1.08-0.4,1.46-0.81c0.18-0.2,0.28-0.46,0.42-0.69c0.02-0.04,0.03-0.09,0.04-0.13
		c0.07-0.16,0.21-0.24,0.36-0.19c0.16,0.05,0.25,0.19,0.21,0.37c-0.13,0.58-0.47,1.02-0.95,1.37c-0.49,0.35-1.04,0.57-1.61,0.74
		c-0.79,0.24-1.59,0.47-2.43,0.5c-0.1,0-0.21,0.02-0.31,0.01c-0.17-0.01-0.29-0.12-0.3-0.27c-0.01-0.17,0.09-0.3,0.28-0.32
		c0.29-0.03,0.59-0.04,0.88-0.08c0.37-0.05,0.73-0.14,1.04-0.36c0.42-0.3,0.69-1.01,0.57-1.51c-0.09-0.34-0.32-0.55-0.64-0.66
		c-0.62-0.23-1.26-0.24-1.9-0.17C8.15,7.57,7.45,7.7,6.75,7.8C5.42,7.97,4.1,8.02,2.79,7.66C1.95,7.43,1.2,7.05,0.65,6.35
		C-0.08,5.4-0.16,4.36,0.23,3.26c0.21-0.6,0.56-1.12,1.01-1.57c0.25-0.25,0.42-0.29,0.56-0.15C1.96,1.68,1.93,1.85,1.68,2.1
		C1.3,2.49,0.99,2.92,0.8,3.43C0.46,4.37,0.51,5.26,1.18,6.05c0.45,0.53,1.05,0.83,1.71,1.02C3.88,7.36,4.9,7.39,5.92,7.28
		C6.74,7.2,7.55,7.04,8.36,6.94c0.81-0.1,1.62-0.14,2.41,0.1c0.63,0.19,1.09,0.56,1.21,1.25c0.07,0.41-0.01,0.81-0.16,1.19
		C11.8,9.55,11.77,9.61,11.73,9.71z"/>
	<path class="st0" d="M10.37,12.13c0,0.25-0.14,0.48-0.39,0.56c-0.25,0.08-0.51,0.13-0.76,0.18C8.53,13.01,8.14,13.44,8,14.13
		c-0.04,0.19-0.07,0.38-0.12,0.58c-0.08,0.33-0.32,0.53-0.62,0.53c-0.29-0.01-0.52-0.2-0.6-0.53c-0.06-0.24-0.09-0.49-0.16-0.73
		c-0.15-0.59-0.54-0.95-1.13-1.1c-0.27-0.07-0.54-0.1-0.8-0.19c-0.39-0.13-0.54-0.6-0.29-0.91c0.11-0.13,0.29-0.21,0.46-0.27
		c0.19-0.07,0.39-0.08,0.59-0.13c0.66-0.15,1.06-0.56,1.2-1.22c0.04-0.2,0.08-0.4,0.12-0.59c0.07-0.34,0.3-0.54,0.6-0.54
		C7.57,9.03,7.8,9.23,7.88,9.58c0.05,0.23,0.09,0.46,0.15,0.69c0.15,0.61,0.55,0.98,1.15,1.12c0.21,0.05,0.42,0.08,0.63,0.13
		C10.17,11.59,10.37,11.82,10.37,12.13z M7.26,9.63c-0.12,1.52-0.93,2.35-2.46,2.48c0.64,0.15,1.27,0.26,1.75,0.74
		c0.48,0.49,0.58,1.12,0.72,1.75c0.14-0.63,0.24-1.26,0.72-1.75c0.48-0.49,1.11-0.59,1.74-0.73c-0.63-0.14-1.26-0.25-1.73-0.73
		C7.51,10.91,7.41,10.28,7.26,9.63z"/>
	<path class="st0" d="M16.19,0.15c0.25,0,0.48,0.14,0.55,0.39c0.08,0.25,0.13,0.52,0.18,0.78c0.15,0.66,0.57,1.05,1.22,1.2
		c0.2,0.04,0.41,0.08,0.61,0.12c0.32,0.07,0.52,0.3,0.52,0.6c0,0.3-0.19,0.54-0.53,0.61c-0.24,0.05-0.47,0.09-0.71,0.15
		c-0.61,0.15-0.98,0.55-1.12,1.16c-0.06,0.25-0.09,0.52-0.17,0.76c-0.13,0.4-0.6,0.56-0.92,0.3c-0.13-0.11-0.21-0.29-0.27-0.46
		c-0.07-0.18-0.08-0.38-0.12-0.57c-0.14-0.68-0.57-1.08-1.24-1.22c-0.2-0.04-0.4-0.08-0.59-0.12c-0.32-0.08-0.52-0.3-0.52-0.6
		c0-0.3,0.2-0.54,0.53-0.62c0.24-0.05,0.47-0.09,0.71-0.15c0.61-0.15,0.98-0.55,1.12-1.16c0.05-0.2,0.08-0.41,0.13-0.61
		C15.65,0.36,15.88,0.15,16.19,0.15z M18.68,3.26c-0.64-0.15-1.27-0.25-1.76-0.73c-0.48-0.48-0.58-1.11-0.73-1.74
		c-0.14,0.63-0.25,1.26-0.73,1.74c-0.49,0.48-1.12,0.58-1.75,0.72c0.63,0.14,1.26,0.24,1.75,0.71c0.49,0.48,0.59,1.11,0.75,1.76
		C16.34,4.19,17.16,3.39,18.68,3.26z"/>
	<path class="st0" d="M20,8.98c-0.08,1.76-0.86,3.1-2.41,3.99c-0.04,0.02-0.08,0.05-0.12,0.06c-0.15,0.05-0.29,0.03-0.37-0.12
		c-0.08-0.15-0.05-0.29,0.1-0.39c0.2-0.14,0.42-0.26,0.62-0.41c0.87-0.66,1.39-1.53,1.54-2.61c0.19-1.43-0.26-2.66-1.57-3.52
		c-0.11-0.07-0.24-0.14-0.35-0.22c-0.14-0.1-0.18-0.24-0.1-0.39c0.08-0.14,0.25-0.19,0.41-0.1c1.3,0.72,2.11,1.76,2.23,3.28
		C19.98,8.68,19.99,8.83,20,8.98z"/>
	<path class="st0" d="M14.09,17.23c-0.12,0-0.24,0-0.35,0c-0.2-0.01-0.32-0.13-0.33-0.3c0-0.17,0.13-0.29,0.32-0.3
		c0.25-0.01,0.5-0.01,0.74,0c0.19,0,0.31,0.11,0.31,0.28c0.01,0.17-0.11,0.29-0.31,0.31c-0.01,0-0.03,0-0.04,0
		C14.32,17.23,14.21,17.23,14.09,17.23z"/>
	<path class="st0" d="M15.46,18c0,0.14,0.01,0.27,0,0.41c-0.01,0.16-0.11,0.25-0.26,0.27c-0.17,0.01-0.3-0.07-0.31-0.23
		c-0.02-0.3-0.02-0.6,0-0.9c0.01-0.16,0.14-0.25,0.3-0.24c0.17,0.01,0.26,0.12,0.27,0.28C15.46,17.73,15.46,17.86,15.46,18
		C15.46,18,15.46,18,15.46,18z"/>
	<path class="st0" d="M15.46,15.86c0,0.14,0,0.27,0,0.41c-0.01,0.17-0.11,0.26-0.27,0.28c-0.15,0.02-0.3-0.1-0.31-0.26
		c-0.02-0.28-0.02-0.56,0-0.84c0.01-0.17,0.12-0.28,0.3-0.27c0.18,0.01,0.27,0.11,0.28,0.29C15.46,15.6,15.46,15.73,15.46,15.86
		C15.46,15.86,15.46,15.86,15.46,15.86z"/>
	<path class="st0" d="M16.23,17.23c-0.13,0-0.26,0.01-0.39,0c-0.18-0.01-0.3-0.14-0.3-0.3c0-0.16,0.12-0.28,0.31-0.29
		c0.25-0.01,0.51-0.01,0.76,0c0.19,0.01,0.31,0.12,0.31,0.29c0,0.16-0.12,0.28-0.3,0.3c-0.01,0-0.03,0-0.04,0
		C16.47,17.23,16.35,17.23,16.23,17.23C16.23,17.23,16.23,17.23,16.23,17.23z"/>
</g>
</svg>
