<?xml version="1.0" encoding="utf-8"?>
<!-- Generator: Adobe Illustrator 26.3.1, SVG Export Plug-In . SVG Version: 6.00 Build 0)  -->
<svg version="1.1" id="Capa_1" xmlns="http://www.w3.org/2000/svg" xmlns:xlink="http://www.w3.org/1999/xlink" x="0px" y="0px"
	 viewBox="0 0 20 20" style="enable-background:new 0 0 20 20;" xml:space="preserve">
<style type="text/css">
	.st0{fill:#85CAC8;}
</style>
<g>
	<path class="st0" d="M3.61,0.02c0.16,0.04,0.31,0.07,0.47,0.11C5.45,0.5,6.45,1.75,6.45,3.18c0.01,4.54,0.01,9.08,0,13.62
		c0,0.98-0.41,1.79-1.16,2.43c-0.05,0.04-0.1,0.08-0.17,0.14c0.08,0.01,0.14,0.01,0.19,0.01c2.03,0,4.07,0,6.1,0
		c2.2-0.01,3.92-1.81,3.82-4c-0.09-1.94-1.73-3.55-3.68-3.6c-0.4-0.01-0.51-0.2-0.31-0.55c0.52-0.95,1.04-1.9,1.56-2.85
		c0.85-1.55,1.69-3.1,2.54-4.65c0.03-0.06,0.06-0.12,0.11-0.21c-0.1,0-0.18,0-0.25,0c-2.57,0-5.13,0-7.7,0
		c-0.3,0-0.44-0.09-0.44-0.29c0-0.2,0.14-0.3,0.45-0.3c2.69,0,5.38,0,8.07,0c0.15,0,0.24-0.03,0.3-0.17
		c0.08-0.19,0.19-0.37,0.3-0.55c0.44-0.77,1.26-1.15,2.15-1c0.81,0.13,1.47,0.79,1.64,1.63c0.01,0.04,0.02,0.09,0.04,0.13
		c0,0.18,0,0.36,0,0.55c-0.04,0.14-0.08,0.28-0.13,0.42c-1.41,4.32-2.83,8.64-4.25,12.96c-0.6,1.84-2.25,3.06-4.15,3.06
		c-2.75,0.01-5.5,0.01-8.25,0c-1.76-0.01-3.19-1.43-3.19-3.19c-0.01-4.53-0.01-9.06,0-13.59c0-1.44,0.99-2.7,2.38-3.07
		c0.15-0.04,0.31-0.08,0.47-0.11C3.11,0.02,3.36,0.02,3.61,0.02z M5.87,14.89c0-0.09,0-0.12,0-0.16c0-3.84,0-7.68,0-11.52
		c0-1.45-1.19-2.62-2.64-2.61c-1.44,0-2.62,1.17-2.62,2.62c-0.01,3.83,0,7.66,0,11.5c0,0.05,0.01,0.09,0.02,0.16
		C1.97,13.1,4.53,13.12,5.87,14.89z M11.91,11.23c1.81,0.23,3.33,1.5,3.81,3.44c0.04-0.1,0.06-0.17,0.09-0.24
		c0.59-1.81,1.19-3.62,1.78-5.43c0.57-1.74,1.14-3.48,1.71-5.21c0.1-0.32,0.14-0.63,0.04-0.96c-0.17-0.57-0.66-0.98-1.26-1.05
		c-0.59-0.06-1.15,0.24-1.46,0.81c-1.54,2.82-3.08,5.65-4.63,8.47C11.97,11.11,11.95,11.16,11.91,11.23z M3.23,14.13
		c-1.45,0-2.63,1.18-2.63,2.63c0,1.45,1.18,2.63,2.62,2.63c1.46,0,2.64-1.18,2.64-2.64C5.87,15.31,4.68,14.13,3.23,14.13z"/>
	<path class="st0" d="M3.24,14.72c1.13,0,2.04,0.92,2.04,2.05c0,1.12-0.93,2.04-2.05,2.04c-1.12,0-2.04-0.93-2.04-2.05
		C1.19,15.63,2.12,14.71,3.24,14.72z M3.25,18.22c0.8,0,1.46-0.67,1.45-1.47c0-0.8-0.67-1.46-1.47-1.45c-0.8,0-1.46,0.67-1.45,1.47
		C1.78,17.57,2.44,18.23,3.25,18.22z"/>
	<path class="st0" d="M4.11,16.78c-0.01,0.48-0.41,0.87-0.9,0.86c-0.48-0.01-0.87-0.42-0.85-0.9c0.01-0.47,0.41-0.86,0.89-0.85
		C3.73,15.89,4.12,16.29,4.11,16.78z M3.25,16.47c-0.15-0.01-0.29,0.12-0.3,0.27c-0.01,0.16,0.12,0.3,0.28,0.31
		c0.16,0.01,0.3-0.13,0.3-0.29C3.53,16.61,3.4,16.48,3.25,16.47z"/>
</g>
</svg>
