<?xml version="1.0" encoding="utf-8"?>
<!-- Generator: Adobe Illustrator 26.3.1, SVG Export Plug-In . SVG Version: 6.00 Build 0)  -->
<svg version="1.1" id="Capa_1" xmlns="http://www.w3.org/2000/svg" xmlns:xlink="http://www.w3.org/1999/xlink" x="0px" y="0px"
	 viewBox="0 0 20 20" style="enable-background:new 0 0 20 20;" xml:space="preserve">
<style type="text/css">
	.st0{fill:#85CAC8;}
</style>
<g>
	<path class="st0" d="M0.04,19.65c0.08-0.18,0.23-0.24,0.43-0.24c0.79,0.01,1.59,0,2.42,0c-0.06-0.07-0.11-0.12-0.15-0.17
		c-0.98-1.12-0.6-2.92,0.75-3.52c0.46-0.2,0.97-0.3,1.45-0.45c0.64-0.19,1.28-0.38,1.93-0.56c0.13-0.04,0.17-0.09,0.17-0.23
		c-0.01-0.29,0-0.57,0-0.88c-0.08,0-0.15-0.01-0.22-0.01c-0.66,0-1.33,0-1.99,0c-0.64,0-1.12-0.28-1.4-0.85
		c-0.28-0.57-0.21-1.13,0.19-1.63C4.45,10.07,5.26,9.01,6.13,8c0.24-0.28,0.63-0.47,0.98-0.61C7.56,7.21,8.05,7.12,8.49,7
		C8.32,6.63,8.12,6.22,7.94,5.8C7.71,5.24,7.59,4.65,7.57,4.03c-0.02-0.8,0.31-1.42,0.94-1.89c0.09-0.07,0.14-0.14,0.13-0.25
		c-0.01-0.16-0.01-0.31,0-0.47C8.67,0.75,9.06,0.26,9.7,0.08c0.04-0.01,0.07-0.03,0.1-0.04c0.16,0,0.31,0,0.47,0
		c0.12,0.04,0.25,0.08,0.36,0.13c0.58,0.29,0.82,0.78,0.79,1.41C11.41,1.9,11.5,2.1,11.76,2.31c0.65,0.54,0.83,1.28,0.72,2.1
		c-0.12,0.93-0.36,1.6-0.95,2.62c0.24,0.04,0.48,0.07,0.71,0.12c0.51,0.1,1,0.28,1.41,0.59c0.25,0.19,0.46,0.45,0.66,0.7
		c0.11,0.13,0.06,0.29-0.08,0.4c-0.14,0.11-0.28,0.09-0.41-0.03c-0.02-0.02-0.05-0.05-0.06-0.07c-0.44-0.65-1.1-0.93-1.82-0.99
		c-0.89-0.08-1.79-0.06-2.69-0.08C8.67,7.65,8.08,7.68,7.52,7.89C7.04,8.07,6.62,8.33,6.29,8.76c-0.7,0.92-1.43,1.81-2.15,2.7
		c-0.25,0.31-0.32,0.64-0.16,1c0.17,0.36,0.48,0.51,0.87,0.51c1.49,0,2.98,0,4.47,0c0.38,0,0.4-0.03,0.4-0.4c0-0.88,0-1.77,0-2.65
		C9.71,9.9,9.69,9.89,9.67,9.88c-0.1,0.13-0.22,0.26-0.29,0.4c-0.19,0.39-0.25,0.82-0.28,1.25c-0.02,0.36-0.09,0.44-0.46,0.44
		c-0.83,0-1.65,0-2.48,0c-0.16,0-0.32,0-0.4-0.17c-0.08-0.18,0.01-0.31,0.11-0.44c0.45-0.57,0.89-1.14,1.34-1.7
		c0.03-0.04,0.06-0.08,0.1-0.12C7.44,9.42,7.58,9.41,7.72,9.5C7.86,9.59,7.9,9.77,7.8,9.92c-0.12,0.18-0.26,0.34-0.39,0.51
		c-0.04,0.05-0.07,0.12-0.06,0.17c0.05,0.25,0.11,0.49,0.17,0.75c0.3,0,0.59,0.01,0.88-0.01c0.04,0,0.1-0.11,0.12-0.18
		c0.11-0.38,0.16-0.78,0.31-1.14c0.29-0.68,0.8-0.93,1.51-0.82c0.34,0.06,0.59,0.26,0.78,0.54c0.29,0.42,0.41,0.9,0.45,1.39
		c0.02,0.17,0.07,0.22,0.24,0.21c0.25-0.01,0.51,0,0.77,0c0.06-0.26,0.12-0.51,0.17-0.77c0.01-0.05-0.03-0.11-0.06-0.15
		c-0.12-0.16-0.25-0.32-0.37-0.48c-0.12-0.16-0.1-0.34,0.04-0.45c0.14-0.11,0.32-0.08,0.45,0.07c0.49,0.62,0.99,1.24,1.47,1.88
		c0.06,0.08,0.09,0.25,0.04,0.34c-0.04,0.09-0.19,0.18-0.29,0.18c-0.9,0.01-1.8,0.01-2.69,0.01c-0.23,0-0.32-0.12-0.35-0.35
		c-0.06-0.42-0.13-0.83-0.24-1.24c-0.05-0.18-0.2-0.34-0.3-0.5c-0.02,0.01-0.04,0.02-0.06,0.02c-0.01,0.03-0.02,0.07-0.02,0.1
		c0,0.87,0,1.74,0,2.62c0,0.3,0.05,0.35,0.34,0.35c1.54,0,3.07,0,4.61,0c0.36,0,0.64-0.17,0.8-0.5c0.16-0.33,0.12-0.65-0.1-0.94
		c-0.18-0.23-0.37-0.46-0.55-0.69c-0.14-0.18-0.14-0.37,0-0.49c0.15-0.13,0.33-0.1,0.49,0.1c0.19,0.23,0.38,0.46,0.56,0.7
		c0.38,0.5,0.43,1.04,0.16,1.6c-0.27,0.55-0.73,0.83-1.35,0.84c-0.67,0.01-1.34,0-2.01,0c-0.07,0-0.14,0-0.24,0
		c0,0.34-0.01,0.67,0.01,1c0,0.04,0.09,0.09,0.15,0.11c0.92,0.27,1.83,0.55,2.75,0.8c0.53,0.15,1.02,0.34,1.39,0.78
		c0.74,0.88,0.73,2.14-0.04,3c-0.03,0.03-0.06,0.07-0.11,0.12c0.08,0.01,0.13,0.01,0.19,0.01c0.74,0,1.48,0.01,2.23,0
		c0.2,0,0.34,0.06,0.43,0.24c0,0.13,0,0.26,0,0.39c-6.67,0-13.33,0-20,0C0.04,19.91,0.04,19.78,0.04,19.65z M14.67,17.95
		c0,0.48,0,0.96,0,1.49c0.48-0.04,0.97-0.02,1.42-0.12c0.71-0.16,1.18-0.83,1.18-1.56c0-0.7-0.46-1.35-1.08-1.54
		c-1.04-0.3-2.08-0.61-3.13-0.91c-0.71-0.21-0.63-0.16-0.63-0.84c0-0.29,0-0.58,0-0.88c-0.45,0-0.88,0.01-1.31,0
		c-0.36-0.01-0.73,0.07-1.06-0.17c-0.33,0.22-0.71,0.17-1.08,0.18c-0.38,0-0.77,0-1.15,0c-0.06,0-0.11,0.01-0.16,0.01
		c0,0.34,0,0.65,0,0.97c1,0,1.98,0,2.97,0c0.09,0,0.19,0,0.27,0.03c0.14,0.05,0.21,0.18,0.19,0.33c-0.02,0.14-0.11,0.23-0.26,0.26
		c-0.06,0.01-0.13,0.01-0.19,0.01c-1.02,0-2.04,0-3.07,0c-0.11,0-0.22,0.02-0.33,0.05c-0.85,0.24-1.7,0.49-2.55,0.74
		c-0.34,0.1-0.7,0.18-1.02,0.33c-0.59,0.28-0.93,0.94-0.86,1.6c0.06,0.66,0.53,1.27,1.18,1.41c0.46,0.1,0.94,0.08,1.42,0.12
		c0-0.54,0-1.01,0-1.49c-0.12-0.03-0.22-0.06-0.33-0.1c-0.16-0.06-0.23-0.19-0.19-0.36c0.04-0.16,0.15-0.24,0.32-0.23
		c0.06,0,0.12,0.02,0.17,0.03c0.8,0.2,1.61,0.38,2.4,0.61c0.4,0.11,0.74,0.13,1.05-0.17c0.02-0.02,0.04-0.03,0.07-0.04
		c0.63-0.34,1.4-0.15,1.79,0.45c0.07,0.11,0.13,0.13,0.25,0.1c0.79-0.2,1.59-0.4,2.38-0.6c0.47-0.12,0.93-0.23,1.4-0.35
		c0.25-0.06,0.43,0.02,0.47,0.21c0.04,0.19-0.07,0.33-0.33,0.4C14.8,17.91,14.74,17.93,14.67,17.95z M8.26,4.64
		c0.02,0.11,0.02,0.18,0.04,0.25c0.18,0.49,0.35,0.98,0.56,1.45c0.22,0.49,0.65,0.69,1.17,0.69c0.52,0,0.94-0.2,1.18-0.68
		c0.16-0.33,0.32-0.66,0.42-1.01c0.11-0.39,0.16-0.8,0.24-1.2c0.02-0.12-0.04-0.17-0.15-0.2C11.36,3.86,11,3.87,10.67,4.06
		c-0.18,0.1-0.35,0.2-0.52,0.31C9.57,4.75,8.97,4.91,8.26,4.64z M14.02,18.11c-0.08,0.02-0.13,0.02-0.18,0.04
		c-1.03,0.26-2.06,0.51-3.08,0.77c-0.31,0.08-0.4,0.03-0.52-0.27c-0.18-0.46-0.65-0.63-1.07-0.39c-0.58,0.32-1.16,0.64-1.73,0.97
		c-0.07,0.04-0.14,0.1-0.24,0.18c2.31,0,4.56,0,6.82,0C14.02,18.97,14.02,18.55,14.02,18.11z M11.76,3.29
		c-0.11-0.15-0.19-0.29-0.29-0.4c-0.64-0.71-1.81-0.82-2.59-0.24c-0.37,0.27-0.61,0.64-0.67,1.1C8.2,3.82,8.24,3.95,8.29,3.97
		c0.41,0.21,0.84,0.26,1.26,0.02c0.18-0.1,0.36-0.21,0.53-0.32c0.47-0.31,0.98-0.46,1.55-0.37C11.66,3.3,11.69,3.29,11.76,3.29z
		 M10.8,1.76c0.03-0.4,0.01-0.75-0.36-0.98C10.18,0.62,9.86,0.63,9.6,0.81C9.26,1.04,9.25,1.38,9.28,1.77
		C9.79,1.62,10.28,1.62,10.8,1.76z M6.05,19.41c0.13,0,0.25,0.01,0.37,0c0.05-0.01,0.13-0.06,0.15-0.11c0.12-0.29,0.32-0.5,0.6-0.64
		c0.1-0.05,0.2-0.11,0.35-0.19C7,18.34,6.53,18.23,6.05,18.11C6.05,18.55,6.05,18.97,6.05,19.41z"/>
	<path class="st0" d="M14.88,9.94c-0.18,0-0.36-0.18-0.36-0.37c0-0.17,0.14-0.31,0.31-0.31c0.17,0,0.36,0.19,0.36,0.37
		C15.19,9.8,15.05,9.94,14.88,9.94z"/>
</g>
</svg>
