<?xml version="1.0" encoding="utf-8"?>
<!-- Generator: Adobe Illustrator 26.3.1, SVG Export Plug-In . SVG Version: 6.00 Build 0)  -->
<svg version="1.1" id="Capa_1" xmlns="http://www.w3.org/2000/svg" xmlns:xlink="http://www.w3.org/1999/xlink" x="0px" y="0px"
	 viewBox="0 0 20 20" style="enable-background:new 0 0 20 20;" xml:space="preserve">
<style type="text/css">
	.st0{fill:#85CAC8;}
</style>
<path class="st0" d="M5.55,6.47C6.18,6.23,6.74,5.93,7.1,5.36C7.18,5.24,7.23,5.1,7.27,4.97c0.04-0.16,0.09-0.3,0.28-0.28
	c0.2,0.02,0.22,0.18,0.22,0.35c0,0.77-0.13,1.52-0.41,2.24C7.35,7.34,7.33,7.4,7.3,7.48C7.5,7.46,7.69,7.44,7.88,7.43
	c1.18-0.02,2.35-0.04,3.53-0.04c0.16,0,0.24-0.04,0.3-0.19c0.31-0.68,0.62-1.35,0.94-2.02c0.09-0.18,0.1-0.34,0.01-0.54
	c-0.21-0.46-0.15-0.91,0.19-1.28c0.34-0.37,0.78-0.49,1.26-0.32c0.65,0.24,1.3,0.5,1.94,0.77c0.46,0.19,0.7,0.56,0.71,1.04
	c0.02,0.48-0.21,0.85-0.63,1.07c-0.16,0.08-0.24,0.19-0.29,0.36c-0.15,0.53-0.32,1.06-0.48,1.59c0.41,0.12,0.8,0.23,1.19,0.37
	c0.51,0.17,0.99,0.39,1.42,0.73c0.38,0.3,0.58,0.67,0.56,1.17c-0.1,2.76-1.21,5-3.38,6.71c-0.12,0.1-0.17,0.19-0.16,0.34
	c0.01,0.2,0,0.41,0,0.61c0,0.45-0.19,0.81-0.55,1.08c-0.63,0.46-1.35,0.72-2.1,0.87c-1.96,0.39-3.9,0.32-5.81-0.3
	c-0.35-0.11-0.68-0.3-1-0.49c-0.39-0.23-0.59-0.61-0.59-1.07c0-0.27,0.01-0.54-0.01-0.81c0-0.07-0.05-0.17-0.11-0.22
	c-1.73-1.36-2.82-3.12-3.21-5.29c-0.1-0.54-0.13-1.09-0.14-1.63c0-0.22,0.11-0.49,0.27-0.65C2,9.03,2.32,8.82,2.63,8.6
	c0.08-0.06,0.14-0.1,0.12-0.22C2.67,7.73,2.88,7.17,3.33,6.69c0.33-0.35,0.63-0.71,0.82-1.15c0.19-0.43,0.28-0.86,0.12-1.32
	C4.23,4.1,4.26,3.97,4.39,3.92c0.15-0.06,0.26,0,0.34,0.13c0.41,0.7,0.67,1.44,0.79,2.24C5.53,6.34,5.54,6.39,5.55,6.47z M17.95,11
	c-0.4,0.19-0.78,0.42-1.18,0.57c-1.6,0.61-3.29,0.83-4.99,0.94c-1.76,0.11-3.52,0.07-5.27-0.16C5.38,12.2,4.27,12,3.2,11.57
	c-0.4-0.16-0.79-0.38-1.17-0.57c0.21,3.09,2.98,6.82,7.4,7.11C14.24,18.44,17.64,14.66,17.95,11z M2.85,8.99
	c-0.25,0.2-0.5,0.37-0.71,0.58c-0.26,0.27-0.27,0.55,0.01,0.8c0.23,0.22,0.51,0.41,0.79,0.55c0.82,0.41,1.7,0.62,2.59,0.78
	c1.77,0.33,3.56,0.42,5.36,0.36c1.63-0.05,3.24-0.21,4.82-0.65c0.69-0.19,1.36-0.41,1.94-0.85c0.53-0.41,0.53-0.8,0.01-1.22
	c-0.01,0-0.01-0.01-0.02-0.01c-0.72-0.52-1.56-0.75-2.42-0.97c-0.04,0.14-0.08,0.26-0.12,0.4c0.17,0.05,0.33,0.08,0.48,0.13
	c0.16,0.05,0.33,0.09,0.48,0.16c0.23,0.11,0.46,0.23,0.65,0.39c0.29,0.25,0.28,0.61,0,0.87c-0.14,0.13-0.31,0.26-0.49,0.32
	c-0.5,0.17-1,0.34-1.51,0.44c-1.65,0.33-3.32,0.4-4.99,0.38C8.17,11.45,6.62,11.36,5.1,11c-0.46-0.11-0.91-0.29-1.35-0.48
	c-0.27-0.12-0.48-0.33-0.47-0.67c0-0.03-0.02-0.06-0.03-0.09C3.12,9.52,3,9.28,2.85,8.99z M12.49,6.67
	c-0.67,1.43-1.33,2.85-2.01,4.31c1.15-0.01,2.25-0.08,3.34-0.23c0.14-0.02,0.19-0.08,0.22-0.21c0.19-0.65,0.39-1.3,0.58-1.94
	c0.1-0.34,0.21-0.68,0.31-1.03C13.75,7.44,13.74,7.43,12.49,6.67z M5.42,17.32c0,0.19,0,0.36,0,0.53c-0.01,0.34,0.13,0.6,0.42,0.76
	c0.29,0.16,0.59,0.32,0.9,0.42c1.75,0.56,3.53,0.63,5.33,0.3c0.74-0.14,1.45-0.37,2.08-0.82c0.19-0.13,0.31-0.31,0.34-0.53
	c0.02-0.2,0-0.4,0-0.61C11.47,19.07,8.46,19.06,5.42,17.32z M4.99,10.47c0.06,0.02,0.12,0.04,0.18,0.05
	c1.53,0.34,3.09,0.44,4.65,0.45c0.06,0,0.15-0.07,0.18-0.14c0.24-0.49,0.47-0.99,0.7-1.48c0.08-0.17,0.16-0.34,0.24-0.53
	c-0.09,0-0.15,0-0.22,0c-0.02,0.27-0.11,0.4-0.29,0.4c-0.06,0-0.15-0.02-0.19-0.06c-0.07-0.1-0.12-0.22-0.18-0.35
	C8.84,8.8,7.59,8.86,6.35,9.04C6.27,9.05,6.19,9.06,6.12,9.1c-0.21,0.14-0.41,0.29-0.6,0.45C5.23,9.79,5.07,10.1,4.99,10.47z
	 M15.16,6.03c0.13,0.03,0.27-0.01,0.37-0.21c0.06-0.12,0.19-0.21,0.31-0.28c0.29-0.15,0.46-0.37,0.44-0.69
	c-0.02-0.32-0.22-0.52-0.52-0.64C15.19,4,14.62,3.77,14.05,3.54c-0.34-0.13-0.63-0.08-0.84,0.15c-0.2,0.22-0.22,0.5-0.08,0.83
	c0.06,0.16,0.09,0.35,0.08,0.53c-0.01,0.13,0.01,0.21,0.11,0.29C13.84,5.77,14.43,5.99,15.16,6.03z M4.76,5.31
	C4.56,5.98,4.18,6.51,3.71,7C3.25,7.47,3.12,8.03,3.29,8.66c0.11,0.4,0.29,0.76,0.57,1.13c-0.04-0.28-0.08-0.51-0.1-0.74
	C3.7,8.54,3.77,8.04,3.94,7.56C3.99,7.4,4.1,7.31,4.26,7.36c0.16,0.06,0.2,0.19,0.14,0.35c-0.01,0.03-0.02,0.06-0.03,0.1
	C4.2,8.37,4.18,8.93,4.31,9.47C5.11,8.17,5.33,6.8,4.76,5.31z M7.18,6.05c-0.45,0.43-0.97,0.7-1.52,0.9
	C5.61,6.97,5.57,7.07,5.57,7.13c-0.01,0.69-0.2,1.33-0.51,1.94C4.99,9.2,4.93,9.34,4.9,9.42C6.12,8.66,6.98,7.59,7.18,6.05z
	 M11.38,7.9c-0.04-0.01-0.05-0.03-0.07-0.03C9.91,7.8,8.51,7.83,7.12,8C7.07,8,7.02,8.02,7,8.06C6.9,8.19,6.81,8.33,6.72,8.48
	c0.47-0.04,0.91-0.09,1.36-0.11c0.98-0.03,1.96-0.03,2.94-0.05c0.07,0,0.16-0.03,0.2-0.08C11.28,8.14,11.33,8.02,11.38,7.9z
	 M14.96,9.19c-0.16,0.52-0.29,0.96-0.43,1.43c0.61-0.12,1.19-0.24,1.7-0.54c0.25-0.14,0.26-0.28,0-0.4
	C15.83,9.5,15.41,9.37,14.96,9.19z M15.24,6.57c-0.42-0.09-0.84-0.14-1.22-0.28c-0.38-0.14-0.72-0.37-1.09-0.56
	c-0.06,0.14-0.14,0.3-0.21,0.47c0.69,0.59,1.47,0.9,2.37,0.87C15.15,6.89,15.2,6.72,15.24,6.57z"/>
<path class="st0" d="M11.79,2.97c0,0.81-0.24,1.45-0.8,1.95c-0.12,0.11-0.19,0.29-0.25,0.44c-0.05,0.13-0.09,0.27-0.24,0.26
	c-0.1-0.01-0.22-0.1-0.27-0.19c-0.19-0.36-0.3-0.75-0.28-1.17c0.02-0.41,0.2-0.72,0.58-0.91c0.16-0.08,0.32-0.16,0.44-0.28
	c0.12-0.13,0.22-0.3,0.28-0.47c0.05-0.14,0.09-0.26,0.26-0.26c0.16,0,0.23,0.12,0.25,0.27C11.78,2.75,11.78,2.9,11.79,2.97z
	 M10.5,4.69c0.38-0.31,0.68-0.66,0.75-1.19C11.11,3.59,11,3.66,10.88,3.73C10.45,3.96,10.34,4.22,10.5,4.69z"/>
<path class="st0" d="M6.71,2.19c0.05-0.23,0.1-0.39,0.13-0.55C6.91,1.31,6.93,1,6.68,0.72c-0.05-0.06-0.05-0.23,0-0.28
	c0.06-0.06,0.23-0.1,0.3-0.06c0.71,0.45,1.2,1.05,1.27,1.92c0.02,0.28,0.01,0.55,0.21,0.78c0.05,0.06,0.04,0.21,0,0.27
	C8.41,3.41,8.27,3.46,8.19,3.44c-0.45-0.12-0.88-0.3-1.18-0.67C6.87,2.59,6.8,2.35,6.71,2.19z M7.75,2.71
	C7.79,2.24,7.71,1.8,7.39,1.4C7.35,1.58,7.33,1.74,7.28,1.89C7.13,2.26,7.41,2.6,7.75,2.71z"/>
<path class="st0" d="M10.62,0.98c-0.27,0-0.49-0.21-0.49-0.49c0-0.27,0.22-0.49,0.49-0.49c0.27,0,0.49,0.22,0.49,0.49
	C11.11,0.76,10.89,0.98,10.62,0.98z"/>
<path class="st0" d="M9.34,5.75c0,0.24-0.2,0.43-0.44,0.43c-0.25,0-0.45-0.2-0.45-0.45c0-0.24,0.21-0.44,0.45-0.44
	C9.15,5.29,9.35,5.5,9.34,5.75z"/>
<path class="st0" d="M3.76,1.78c0,0.21-0.18,0.4-0.39,0.41c-0.21,0-0.4-0.18-0.41-0.39c0-0.21,0.18-0.4,0.39-0.41
	C3.57,1.39,3.76,1.57,3.76,1.78z"/>
<path class="st0" d="M4.25,14.13c0.04,0.05,0.14,0.12,0.2,0.21c0.33,0.53,0.75,0.97,1.31,1.27c0.18,0.09,0.37,0.17,0.56,0.24
	c0.15,0.06,0.25,0.15,0.21,0.32c-0.04,0.15-0.18,0.2-0.36,0.14C5.21,16,4.5,15.38,3.99,14.52C3.88,14.34,3.99,14.14,4.25,14.13z"/>
<path class="st0" d="M4.04,13.48c-0.06,0.06-0.13,0.17-0.21,0.18c-0.08,0.01-0.22-0.04-0.26-0.11c-0.07-0.11-0.11-0.25-0.11-0.38
	c0-0.08,0.1-0.21,0.17-0.23c0.08-0.02,0.22,0.04,0.26,0.11C3.98,13.16,3.99,13.31,4.04,13.48z"/>
<path class="st0" d="M9.34,10.49c0,0.24-0.2,0.45-0.45,0.45c-0.23,0-0.45-0.22-0.44-0.46c0.01-0.24,0.21-0.44,0.44-0.44
	C9.14,10.04,9.34,10.24,9.34,10.49z"/>
<path class="st0" d="M6.66,10.37c-0.25,0-0.45-0.19-0.45-0.44c0-0.24,0.2-0.44,0.44-0.44c0.24,0,0.46,0.21,0.46,0.45
	C7.1,10.17,6.9,10.37,6.66,10.37z"/>
</svg>
