<?xml version="1.0" encoding="utf-8"?>
<!-- Generator: Adobe Illustrator 26.3.1, SVG Export Plug-In . SVG Version: 6.00 Build 0)  -->
<svg version="1.1" id="Capa_1" xmlns="http://www.w3.org/2000/svg" xmlns:xlink="http://www.w3.org/1999/xlink" x="0px" y="0px"
	 viewBox="0 0 20 20" style="enable-background:new 0 0 20 20;" xml:space="preserve">
<style type="text/css">
	.st0{fill:#FFFFFF;}
</style>
<path id="Trazado_549" class="st0" d="M14.19,0H5.81C4.54-0.04,3.48,0.95,3.42,2.22v15.55c0.05,1.27,1.12,2.26,2.39,2.22h8.37
	c1.27,0.04,2.34-0.95,2.39-2.22V2.22C16.52,0.95,15.46-0.04,14.19,0z M15.38,17.78c-0.07,0.62-0.58,1.09-1.2,1.11H5.81
	c-0.62-0.02-1.13-0.49-1.2-1.11V2.22c0.07-0.62,0.58-1.09,1.2-1.11h8.37c0.62,0.02,1.13,0.49,1.2,1.11L15.38,17.78z"/>
<circle id="Elipse_8" class="st0" cx="10" cy="17.73" r="0.73"/>
</svg>
