<?xml version="1.0" encoding="utf-8"?>
<!-- Generator: Adobe Illustrator 26.3.1, SVG Export Plug-In . SVG Version: 6.00 Build 0)  -->
<svg version="1.1" id="Capa_1" xmlns="http://www.w3.org/2000/svg" xmlns:xlink="http://www.w3.org/1999/xlink" x="0px" y="0px"
	 viewBox="0 0 20 20" style="enable-background:new 0 0 20 20;" xml:space="preserve">
<style type="text/css">
	.st0{fill:#85CAC8;}
</style>
<g>
	<path class="st0" d="M14.86,10.64c0.15,0.02,0.26,0.03,0.37,0.06c1.07,0.22,1.81,0.84,2.23,1.84c0.74,1.77,1.48,3.54,2.22,5.31
		c0.09,0.22,0.19,0.44,0.28,0.67c0.08,0.2,0.04,0.37-0.11,0.46c-0.16,0.1-0.33,0.05-0.46-0.15c-0.81-1.16-1.63-2.32-2.44-3.48
		c-0.04-0.06-0.08-0.11-0.16-0.22c0,0.47,0,0.88,0,1.29c0,0.52-0.1,1.03-0.33,1.5c-0.65,1.31-1.72,2.04-3.19,2.06
		c-2.17,0.03-4.34,0.02-6.51,0.01c-1.94-0.01-3.51-1.58-3.52-3.52c-0.01-1.06,0-2.11,0-3.17c0-0.3,0.11-0.41,0.42-0.41
		c0.29,0,0.57,0,0.87,0c0-0.23,0-0.43,0-0.64c0-0.04-0.05-0.09-0.09-0.12c-1.21-0.81-2.16-1.86-3-3.04C1,8.52,0.56,7.94,0.12,7.36
		C0.01,7.21-0.06,7.06,0.08,6.89c0.13-0.16,0.29-0.13,0.46-0.06c1.03,0.44,2.06,0.88,3.09,1.32C3.68,8.18,3.74,8.2,3.85,8.25
		C3.81,8.16,3.8,8.11,3.78,8.06c-1-2.11-1.41-4.33-1.25-6.65C2.55,1.07,2.56,0.73,2.58,0.4C2.59,0.15,2.68,0.02,2.86,0
		c0.17-0.02,0.29,0.07,0.37,0.29c0.74,2.09,1.47,4.17,2.21,6.26c0.27,0.76,0.54,1.53,0.84,2.29C6.27,8.7,6.25,8.57,6.23,8.43
		c-0.37-2.49,0.29-4.66,2.02-6.5C8.38,1.79,8.52,1.71,8.7,1.81c0.16,0.09,0.19,0.23,0.15,0.4C8.62,3.46,8.38,4.7,8.17,5.95
		C8.09,6.44,8.1,6.93,8.07,7.42c0,0.02,0.01,0.05,0.04,0.07c0.05-0.31,0.09-0.63,0.15-0.94c0.31-1.62,0.89-3.13,1.9-4.44
		c0.95-1.23,2.23-1.91,3.77-2.08c0.17-0.02,0.33-0.02,0.5-0.03c0.15-0.01,0.28,0.03,0.36,0.17c0.08,0.14,0.03,0.27-0.06,0.39
		c-0.38,0.57-0.77,1.13-1.12,1.72c-1.15,1.94-1.94,4.03-2.4,6.25c-0.01,0.04-0.01,0.08-0.02,0.12c0,0.01,0.01,0.02,0.03,0.06
		c0.09-0.21,0.18-0.41,0.26-0.6c0.5-1.21,1-2.42,1.79-3.48C13.75,4,14.23,3.4,14.77,2.85c1.52-1.55,4.04-1.07,4.93,0.9
		c0.09,0.2,0.17,0.41,0.26,0.61c0.06,0.15,0.05,0.28-0.07,0.39c-0.13,0.11-0.27,0.11-0.41,0.02c-0.35-0.21-0.7-0.42-1.05-0.63
		c-0.83-0.49-1.78-0.32-2.35,0.45c-0.99,1.31-1.87,2.69-2.64,4.14c-0.01,0.03-0.02,0.06-0.05,0.12c0.18-0.11,0.33-0.2,0.48-0.28
		c2.32-1.25,5.17-0.1,5.97,2.4c0.05,0.17,0.1,0.34,0.15,0.5c0.06,0.17,0.02,0.31-0.13,0.41c-0.16,0.1-0.31,0.05-0.43-0.08
		c-0.36-0.36-0.71-0.72-1.07-1.07c-0.91-0.89-2.28-0.98-3.3-0.24C14.99,10.53,14.94,10.58,14.86,10.64z M3.87,13.54
		c0,0.98,0,1.94,0,2.89c0.01,1.63,1.29,2.91,2.92,2.91c2.14,0,4.27,0,6.41,0c1.64,0,2.92-1.29,2.93-2.93c0-0.56-0.03-1.13,0.01-1.69
		c0.03-0.4-0.1-0.71-0.34-1.01c-0.1-0.12-0.19-0.18-0.35-0.18c-2.71,0.01-5.43,0-8.14,0c-0.07,0-0.13,0-0.2,0
		c-0.02,0.06-0.04,0.1-0.05,0.14c-0.42,1.26-0.61,2.56-0.6,3.88c0,0.31-0.07,0.44-0.26,0.48c-0.18,0.04-0.32-0.05-0.43-0.34
		c-0.28-0.72-0.58-1.43-0.8-2.17c-0.19-0.65-0.29-1.32-0.43-2c-0.02,0-0.06-0.01-0.11-0.01C4.25,13.54,4.07,13.54,3.87,13.54z
		 M13.86,0.7c-0.06,0-0.08,0-0.1,0c-1.29,0.21-2.36,0.82-3.14,1.87C9.77,3.71,9.26,5.02,8.95,6.4C8.69,7.55,8.7,8.71,8.71,9.87
		c0,0.06,0.02,0.12,0.04,0.17c0.36,0.9,0.72,1.81,1.08,2.71c0.05,0.13,0.12,0.19,0.29,0.1C10.19,8.47,11.34,4.39,13.86,0.7z
		 M10.75,12.79c0.02,0,0.03,0.01,0.05,0.01c0.22-0.49,0.44-0.97,0.65-1.46c1.09-2.53,2.43-4.91,4.08-7.11
		c0.77-1.03,2.04-1.3,3.16-0.68c0.05,0.03,0.11,0.06,0.16,0.09c-0.01-0.07-0.03-0.11-0.06-0.15c-0.87-1.12-2.53-1.22-3.54-0.22
		c-0.97,0.96-1.79,2.03-2.36,3.27c-0.71,1.54-1.35,3.11-2.02,4.67c-0.01,0.03-0.03,0.06-0.03,0.1
		C10.82,11.8,10.78,12.29,10.75,12.79z M11.46,12.9c0.39,0,0.74-0.01,1.08,0c0.12,0,0.19-0.04,0.25-0.15c0.33-0.61,0.65-1.22,1-1.82
		c0.73-1.26,2.2-1.85,3.6-1.47c0.46,0.12,0.86,0.35,1.24,0.63c-0.01-0.03-0.02-0.05-0.03-0.07c-1-1.27-2.82-1.71-4.26-0.97
		c-0.5,0.25-0.92,0.64-1.39,0.95c-0.21,0.14-0.34,0.33-0.44,0.55C12.17,11.33,11.82,12.09,11.46,12.9z M4.82,11.61
		c0.52-0.58,1.16-0.78,1.92-0.57C6.73,11.02,6.73,11,6.72,11c-0.03-0.04-0.06-0.07-0.1-0.1c-0.77-0.77-1.64-1.41-2.63-1.86
		C3.15,8.64,2.29,8.29,1.43,7.92C1.41,7.91,1.39,7.91,1.35,7.91C2.36,9.49,3.68,10.91,4.82,11.61z M9.19,12.88
		c-0.03-0.07-0.05-0.14-0.08-0.21c-0.38-0.95-0.76-1.91-1.14-2.86c-0.44-1.1-0.65-2.23-0.51-3.41c0.09-0.76,0.25-1.52,0.38-2.28
		c0.02-0.13,0.05-0.26,0.07-0.4C7.94,3.6,7.96,3.47,7.99,3.34C7.94,3.35,7.92,3.37,7.9,3.39c-0.86,1.32-1.25,2.77-1.1,4.34
		c0.09,0.9,0.25,1.79,0.39,2.69c0.01,0.1,0.08,0.2,0.14,0.27c0.56,0.61,1.06,1.27,1.45,2C8.88,12.88,8.99,12.94,9.19,12.88z
		 M5.73,9.28c-0.86-2.43-1.7-4.82-2.56-7.25c-0.01,0.06-0.02,0.08-0.02,0.1C3.1,4.47,3.67,6.65,4.83,8.67
		c0.03,0.04,0.06,0.09,0.1,0.12C5.18,8.95,5.43,9.1,5.73,9.28z M5.83,16.19c0.03-0.05,0.04-0.07,0.04-0.09
		c0.15-1.39,0.52-2.72,1.1-4c0.02-0.05,0-0.16-0.04-0.2c-0.49-0.48-1.33-0.36-1.68,0.24c-0.05,0.09-0.09,0.2-0.08,0.3
		c0.03,0.5,0.06,1.01,0.12,1.5C5.38,14.7,5.56,15.44,5.83,16.19z M18.14,15.94c0-0.06,0.01-0.08,0-0.1c-0.46-1.1-0.89-2.2-1.38-3.28
		c-0.38-0.85-1.32-1.35-2.24-1.27c-0.08,0.01-0.18,0.02-0.22,0.07c-0.12,0.18-0.22,0.38-0.33,0.59c1.16,0.17,1.98,0.78,2.59,1.72
		c0.39,0.6,0.81,1.17,1.22,1.75C17.89,15.59,18,15.75,18.14,15.94z M7.68,12.13c-0.12,0.27-0.22,0.5-0.33,0.75c0.28,0,0.53,0,0.82,0
		C8,12.63,7.85,12.4,7.68,12.13z M14.75,12.89c0-0.01,0.01-0.03,0.01-0.04c-0.11-0.04-0.22-0.1-0.34-0.13
		c-0.19-0.05-0.38-0.09-0.57-0.12c-0.26-0.04-0.32,0.01-0.36,0.29C13.91,12.89,14.33,12.89,14.75,12.89z"/>
</g>
</svg>
