<?xml version="1.0" encoding="utf-8"?>
<!-- Generator: Adobe Illustrator 26.3.1, SVG Export Plug-In . SVG Version: 6.00 Build 0)  -->
<svg version="1.1" id="Capa_1" xmlns="http://www.w3.org/2000/svg" xmlns:xlink="http://www.w3.org/1999/xlink" x="0px" y="0px"
	 viewBox="0 0 20 20" style="enable-background:new 0 0 20 20;" xml:space="preserve">
<style type="text/css">
	.st0{fill:#85CAC8;}
</style>
<path class="st0" d="M6.97,7.72C6.05,7.62,5.26,7.3,4.52,6.8c-0.8,0.64-1.39,1.42-1.81,2.34c-0.02,0.04-0.02,0.11,0,0.15
	c0.24,0.43,0.5,0.86,0.74,1.3C3.6,10.84,3.78,11,4.07,11.07c0.18,0.04,0.36,0.11,0.52,0.2c0.42,0.21,0.59,0.57,0.46,1.02
	c-0.11,0.34-0.27,0.67-0.4,1C4.6,13.4,4.55,13.5,4.49,13.61c-0.22,0.39-0.25,0.74-0.01,1.16c0.31,0.52,0.39,1.12,0.31,1.73
	c-0.02,0.13,0.01,0.21,0.12,0.27c0.36,0.19,0.7,0.39,1.06,0.57c0.21,0.11,0.29,0.25,0.21,0.42c-0.08,0.17-0.23,0.21-0.44,0.11
	C3.42,16.82,2,15.04,1.67,12.5c-0.31-2.36,0.49-4.35,2.25-5.96c0.03-0.03,0.06-0.06,0.1-0.09C3.99,6.41,3.96,6.38,3.93,6.35
	C2.82,5.4,2,4.24,1.33,2.95C1.25,2.79,1.26,2.64,1.4,2.52c1.39-1.18,2.9-2.12,4.73-2.44c1.67-0.29,3.09,0.23,4.35,1.3
	c0.15,0.13,0.15,0.29,0.04,0.42c-0.12,0.13-0.26,0.14-0.42,0.01c-0.49-0.4-1-0.74-1.6-0.96C8.07,0.69,7.62,0.59,7.12,0.59
	c0.05,0.07,0.07,0.12,0.11,0.17c0.77,1.05,1.53,2.09,2.3,3.14c0.04,0.06,0.1,0.13,0.16,0.15c0.85,0.17,1.71,0.34,2.57,0.51
	c0.01-0.01,0.03-0.03,0.04-0.04c-0.32-0.46-0.64-0.92-0.96-1.38c-0.02-0.03-0.05-0.07-0.08-0.1c-0.15-0.19-0.15-0.35,0.01-0.47
	c0.15-0.11,0.3-0.08,0.44,0.1c0.15,0.19,0.31,0.38,0.44,0.58c0.29,0.45,0.51,0.95,0.85,1.35c0.34,0.4,0.8,0.7,1.2,1.05
	c0.12,0.1,0.23,0.22,0.36,0.33c-0.03-0.22-0.06-0.43-0.09-0.65c-0.15-1.35,0.29-2.46,1.34-3.32c0.82-0.68,1.77-1.1,2.79-1.39
	c0.19-0.05,0.32,0.01,0.42,0.18c0.52,0.96,0.89,1.97,0.96,3.07c0.08,1.26-0.39,2.29-1.36,3.09c-0.69,0.58-1.49,0.96-2.33,1.25
	c-0.07,0.02-0.14,0.05-0.24,0.08c0.03,0.08,0.05,0.14,0.08,0.21c1.94,4.76-0.95,10.23-5.98,11.3c-4.49,0.96-8.84-1.79-9.93-6.26
	c-0.26-1.06-0.29-2.13-0.11-3.2c0.04-0.23,0.15-0.32,0.34-0.29c0.19,0.03,0.27,0.16,0.23,0.39C0.13,14.22,2.27,17.75,5.86,19
	c4.42,1.53,9.31-1.28,10.13-5.89c0.56-3.12-0.47-5.68-2.92-7.68c-0.05-0.04-0.11-0.08-0.17-0.12c-0.27,0.22-0.54,0.42-0.82,0.64
	c0.05,0.04,0.1,0.08,0.15,0.11c2.1,1.55,3.08,3.62,2.88,6.22c-0.25,3.12-2.78,5.7-5.89,6.05c-0.49,0.06-1,0.04-1.5,0.03
	c-0.11,0-0.26-0.09-0.31-0.18c-0.12-0.2,0.05-0.4,0.3-0.4c0.33,0.01,0.65,0.03,0.98,0.02c2.81-0.1,5.3-2.29,5.77-5.06
	c0.14-0.86,0.12-1.85-0.06-2.44c-0.5,0.29-1.01,0.55-1.34,1.05c-0.27,0.39-0.2,0.84-0.16,1.27c0.03,0.36,0.13,0.73,0.05,1.07
	c-0.23,1.01-0.89,1.7-1.87,2.03c-0.59,0.2-1.08-0.07-1.25-0.67c-0.1-0.34-0.14-0.71-0.16-1.07c-0.03-0.71-0.02-1.42-0.05-2.12
	c-0.03-0.6-0.09-0.63-0.69-0.56C8.47,11.37,8,11.45,7.53,11.43c-1.06-0.04-1.78-0.95-1.63-2.01C5.98,8.79,6.32,8.3,6.78,7.89
	C6.83,7.84,6.88,7.8,6.97,7.72z M14.25,9.7c-0.47-1.37-1.31-2.45-2.51-3.25c-0.15-0.1-0.25-0.1-0.41-0.01
	c-0.96,0.6-1.97,1.04-3.09,1.22C8.16,7.68,8.06,7.68,7.99,7.73C7.78,7.86,7.58,8,7.39,8.15c-0.38,0.29-0.71,0.63-0.86,1.1
	c-0.27,0.85,0.28,1.63,1.17,1.62c0.18,0,0.36-0.02,0.54-0.04c0.35-0.04,0.7-0.1,1.05-0.14c0.35-0.04,0.6,0.12,0.73,0.43
	c0.09,0.21,0.16,0.45,0.17,0.68c0.03,0.7,0.02,1.4,0.05,2.1c0.01,0.33,0.06,0.66,0.13,0.99c0.06,0.28,0.24,0.37,0.52,0.31
	c0.83-0.18,1.58-1.23,1.47-2.06c-0.02-0.14-0.04-0.29-0.06-0.43c-0.18-1.04,0.15-1.86,1.05-2.43C13.65,10.07,13.94,9.89,14.25,9.7z
	 M12.19,5.16c-0.08-0.03-0.12-0.04-0.15-0.05c-0.8-0.16-1.59-0.32-2.39-0.46c-0.09-0.02-0.2,0.03-0.28,0.08
	C8.39,5.44,7.42,6.16,6.44,6.87C6.4,6.91,6.35,6.95,6.29,7c0.14,0.03,0.26,0.07,0.37,0.08c0.16,0.02,0.32,0.05,0.48,0.05
	C9.09,7.19,10.65,6.27,12.19,5.16z M4.22,16.2c0.03-0.38-0.06-0.93-0.32-1.31c-0.28-0.42-0.25-0.83-0.06-1.26
	c0.17-0.37,0.35-0.74,0.51-1.11c0.26-0.6,0.22-0.69-0.4-0.86c-0.49-0.13-0.83-0.41-1.05-0.86c-0.14-0.28-0.3-0.56-0.46-0.85
	C1.82,11.87,2.36,14.58,4.22,16.2z M8.73,4.47c-0.61-0.12-1.17-0.19-1.7-0.34C6.5,3.97,6.1,4.08,5.68,4.44
	C5.16,4.87,4.59,5.25,4.04,5.66C4.49,6.08,4.97,6.44,5.52,6.7c0.05,0.03,0.16,0,0.22-0.04c0.32-0.23,0.64-0.46,0.96-0.7
	C7.36,5.48,8.02,4.99,8.73,4.47z M8.73,3.87c-0.01-0.04,0-0.05-0.01-0.06C7.97,2.78,7.22,1.75,6.46,0.72
	c-0.03-0.04-0.1-0.08-0.15-0.08C5.79,0.72,5.28,0.86,4.78,1.09C4.82,1.15,4.85,1.2,4.89,1.25c0.38,0.52,0.79,1.02,1.13,1.57
	c0.29,0.45,0.63,0.74,1.18,0.76c0.08,0,0.16,0.03,0.24,0.05C7.88,3.7,8.3,3.78,8.73,3.87z M16.27,7.57
	c0.01,0.01,0.02,0.03,0.04,0.04c0.27-0.12,0.54-0.22,0.8-0.35c0.68-0.34,1.31-0.76,1.76-1.39c0.27-0.37,0.45-0.79,0.5-1.28
	c-0.64,0.26-1.24,0.53-1.86,0.76c-0.28,0.1-0.44,0.26-0.54,0.54C16.75,6.45,16.51,7,16.27,7.57z M15.69,7.38
	c0.01-0.02,0.03-0.03,0.04-0.05c0.26-0.62,0.52-1.24,0.77-1.86c0.03-0.06,0.01-0.16-0.02-0.23c-0.27-0.66-0.54-1.32-0.81-1.98
	c-0.02-0.05-0.04-0.09-0.07-0.14C14.75,4.15,14.96,5.94,15.69,7.38z M2.13,3.18c0.43,0.76,0.92,1.43,1.49,2.06
	c0.63-0.46,1.24-0.91,1.9-1.4C4.37,3.62,3.27,3.4,2.13,3.18z M16.86,4.63c0.46-1.1,0.9-2.16,1.37-3.27
	c-0.81,0.29-1.52,0.65-2.13,1.19c-0.03,0.03-0.05,0.11-0.03,0.16C16.33,3.33,16.59,3.96,16.86,4.63z M2.24,2.53
	c0.01,0.03,0.02,0.05,0.03,0.08c1.11,0.21,2.21,0.43,3.36,0.65c-0.49-0.67-0.95-1.3-1.44-1.97C3.53,1.71,2.89,2.12,2.24,2.53z
	 M17.47,4.69c0.03,0.01,0.05,0.02,0.06,0.01c0.59-0.24,1.18-0.48,1.77-0.73c0.05-0.02,0.1-0.13,0.09-0.19
	c-0.04-0.31-0.07-0.62-0.16-0.92c-0.12-0.42-0.28-0.83-0.42-1.25c-0.02,0-0.04,0.01-0.06,0.01C18.33,2.65,17.9,3.67,17.47,4.69z"/>
</svg>
