<?xml version="1.0" encoding="utf-8"?>
<!-- Generator: Adobe Illustrator 26.3.1, SVG Export Plug-In . SVG Version: 6.00 Build 0)  -->
<svg version="1.1" id="Capa_1" xmlns="http://www.w3.org/2000/svg" xmlns:xlink="http://www.w3.org/1999/xlink" x="0px" y="0px"
	 viewBox="0 0 20 20" style="enable-background:new 0 0 20 20;" xml:space="preserve">
<style type="text/css">
	.st0{fill:#FFFFFF;}
</style>
<g id="Grupo_870">
	<path id="Trazado_1045" class="st0" d="M9.64,19.44c-0.45-0.24-0.62-0.53-0.53-0.89c0.09-0.38,0.37-0.56,0.89-0.57
		c4.44-0.11,7.95-3.8,7.84-8.23c-0.11-4.44-3.8-7.95-8.23-7.84s-7.95,3.8-7.84,8.23c0.08,3.07,1.89,5.82,4.68,7.11
		c0.38,0.14,0.57,0.56,0.43,0.94c-0.14,0.38-0.56,0.57-0.94,0.43c-0.04-0.01-0.07-0.03-0.1-0.05c-3-1.35-5.07-4.19-5.43-7.46
		C-0.23,6.16,3.1,1.57,8,0.63c0.38-0.07,0.76-0.12,1.14-0.18h1.37c0.29,0.04,0.58,0.08,0.87,0.13c3.82,0.63,6.88,3.53,7.71,7.31
		c0.1,0.45,0.15,0.91,0.23,1.37v1.37c-0.04,0.29-0.08,0.58-0.13,0.87c-0.63,3.82-3.53,6.88-7.31,7.71c-0.45,0.1-0.91,0.15-1.37,0.23
		L9.64,19.44z"/>
	<path id="Trazado_1046" class="st0" d="M8.9,5.97c2.13-0.02,4.23,0.43,6.16,1.32c0.21,0.1,0.42,0.21,0.63,0.33
		c0.36,0.18,0.51,0.61,0.33,0.97c0,0.01-0.01,0.01-0.01,0.02c-0.18,0.35-0.61,0.49-0.96,0.31c-0.01-0.01-0.03-0.01-0.04-0.02
		c-1.06-0.57-2.19-0.98-3.38-1.21c-1.41-0.27-2.86-0.35-4.29-0.22C6.45,7.55,5.58,7.68,4.69,7.8C4.37,7.88,4.02,7.74,3.85,7.45
		c-0.16-0.26-0.13-0.6,0.09-0.82C4.08,6.49,4.26,6.4,4.45,6.36C5.92,6.09,7.4,5.96,8.9,5.97"/>
	<path id="Trazado_1047" class="st0" d="M8.56,8.78c1.94-0.02,3.86,0.48,5.54,1.45c0.19,0.11,0.37,0.23,0.56,0.36
		c0.34,0.21,0.45,0.66,0.23,1c0,0.01-0.01,0.01-0.01,0.02c-0.21,0.34-0.66,0.43-0.99,0.22c-0.02-0.01-0.03-0.02-0.05-0.03
		c-1.04-0.72-2.24-1.19-3.49-1.38c-1.35-0.2-2.72-0.18-4.07,0.06c-0.39,0.07-0.77,0.16-1.16,0.24c-0.37,0.04-0.72-0.19-0.82-0.55
		c-0.11-0.38,0.11-0.79,0.5-0.9c0.01,0,0.02,0,0.03-0.01c0.56-0.12,1.12-0.23,1.68-0.3C7.19,8.87,7.88,8.84,8.56,8.78"/>
	<path id="Trazado_1048" class="st0" d="M8.43,11.69c1.69-0.03,3.36,0.41,4.81,1.27c0.32,0.16,0.48,0.52,0.39,0.86
		c-0.11,0.39-0.5,0.61-0.89,0.51c-0.08-0.02-0.16-0.06-0.23-0.11c-0.77-0.48-1.63-0.8-2.52-0.94c-1.21-0.18-2.45-0.16-3.65,0.07
		c-0.23,0.06-0.47,0.1-0.71,0.13c-0.37-0.01-0.67-0.3-0.69-0.67c-0.04-0.39,0.23-0.74,0.62-0.8c0.37-0.07,0.75-0.14,1.13-0.18
		C7.27,11.77,7.85,11.74,8.43,11.69"/>
</g>
</svg>
