<?xml version="1.0" encoding="utf-8"?>
<!-- Generator: Adobe Illustrator 26.3.1, SVG Export Plug-In . SVG Version: 6.00 Build 0)  -->
<svg version="1.1" id="Capa_1" xmlns="http://www.w3.org/2000/svg" xmlns:xlink="http://www.w3.org/1999/xlink" x="0px" y="0px"
	 viewBox="0 0 20 20" style="enable-background:new 0 0 20 20;" xml:space="preserve">
<style type="text/css">
	.st0{fill:#FFFFFF;}
</style>
<g id="Grupo_496" transform="translate(50 6644.687)">
	<path id="Trazado_862" class="st0" d="M-49.96-6634.72c0-1.93-0.03-3.86,0.01-5.79c0.15-2.14,1.8-3.87,3.93-4.14
		c0.32-0.03,0.65-0.04,0.97-0.04c2.8,0,5.6,0.01,8.4,0.02c0.87,0,1.74-0.04,2.61,0.02c2.23,0.21,3.95,2.04,4.03,4.27
		c0.02,3.78,0.02,7.57,0,11.35c-0.09,1.9-1.35,3.54-3.17,4.09c-0.76,0.19-1.55,0.27-2.33,0.22c-2.59,0.02-5.18,0.01-7.76,0.01h-2.05
		c-2.31,0.07-4.29-1.62-4.6-3.9c-0.08-0.86-0.09-1.71-0.05-2.57c-0.01-1.18,0-2.36,0-3.55L-49.96-6634.72z M-40.02-6625.82
		L-40.02-6625.82c1.88,0,3.76,0.04,5.63-0.01c1.83-0.04,3.29-1.55,3.27-3.39c0.01-3.65,0.01-7.29,0-10.94
		c0.02-1.87-1.48-3.41-3.35-3.44c-0.04,0-0.08,0-0.12,0c-3.61,0-7.21,0-10.82,0c-1.89-0.03-3.46,1.47-3.49,3.37c0,0.03,0,0.07,0,0.1
		c-0.01,3.63-0.01,7.27,0,10.9c-0.01,1.83,1.45,3.34,3.28,3.39C-43.75-6625.78-41.88-6625.82-40.02-6625.82z"/>
	<path id="Trazado_863" class="st0" d="M-33.35-6639.11l-0.94,1.28l1.14-0.3l0.06,0.06c-0.32,0.34-0.66,0.68-0.96,1.03
		c-0.12,0.13-0.2,0.29-0.22,0.46c-0.03,1.77-0.66,3.48-1.78,4.85c-2.2,2.49-4.95,3.17-8.11,2.28c-0.55-0.17-1.09-0.39-1.6-0.66
		c0.95-0.04,1.88-0.24,2.75-0.6c0.31-0.16,0.59-0.35,0.91-0.54c-0.51-0.21-1-0.38-1.45-0.62c-0.46-0.29-0.79-0.75-0.91-1.29h0.94
		c-1.12-0.37-1.86-1.43-1.81-2.61l0.96,0.28c-1.09-1.31-1.27-2.43-0.61-3.55c1.3,1.59,3.2,2.58,5.26,2.74
		c0.04-0.45,0.1-0.9,0.2-1.34c0.43-1.4,1.91-2.18,3.31-1.75c0.34,0.1,0.65,0.27,0.92,0.5c0.16,0.17,0.41,0.23,0.63,0.13
		c0.4-0.16,0.82-0.3,1.22-0.44L-33.35-6639.11z"/>
</g>
</svg>
