<?xml version="1.0" encoding="utf-8"?>
<!-- Generator: Adobe Illustrator 26.3.1, SVG Export Plug-In . SVG Version: 6.00 Build 0)  -->
<svg version="1.1" id="Capa_1" xmlns="http://www.w3.org/2000/svg" xmlns:xlink="http://www.w3.org/1999/xlink" x="0px" y="0px"
	 viewBox="0 0 20 20" style="enable-background:new 0 0 20 20;" xml:space="preserve">
<style type="text/css">
	.st0{fill:#FFFFFF;}
</style>
<path id="Trazado_550" class="st0" d="M14.58,12l-1.68-0.84c-0.21-0.11-0.42-0.11-0.53,0.11c-0.25,0.34-0.54,0.66-0.84,0.95
	c-0.11,0.21-0.31,0.21-0.53,0.11c-0.73-0.31-1.41-0.74-2-1.26C8.45,10.57,7.99,10,7.63,9.37C7.55,9.19,7.59,8.98,7.74,8.84
	c0.13-0.12,0.24-0.26,0.31-0.42C8.18,8.32,8.26,8.16,8.26,8c0.11-0.21,0-0.31,0-0.42S7.73,6.31,7.53,5.79
	C7.32,5.26,7.11,5.37,7,5.37H6.58C6.34,5.38,6.11,5.5,5.95,5.68C5.38,6.23,5.08,7,5.11,7.79c0.02,0.95,0.4,1.85,1.05,2.53
	c1.06,1.58,2.51,2.85,4.21,3.68c0.63,0.21,1.05,0.42,1.37,0.53c0.51,0.19,1.05,0.22,1.58,0.11c0.69-0.16,1.29-0.57,1.68-1.16
	c0.18-0.36,0.22-0.77,0.11-1.16C14.95,12.19,14.77,12.08,14.58,12z"/>
<path id="Trazado_551" class="st0" d="M17,2.95C15.15,1.05,12.6-0.01,9.95,0C4.49-0.01,0.06,4.41,0.05,9.87c0,0.01,0,0.02,0,0.02
	c-0.03,1.75,0.44,3.47,1.37,4.95L0.05,20l5.27-1.37c1.44,0.83,3.07,1.27,4.74,1.26c5.46,0,9.89-4.42,9.89-9.87c0-0.01,0-0.01,0-0.02
	C19.98,7.34,18.92,4.79,17,2.95z M10.05,18.11c-1.48-0.01-2.93-0.41-4.21-1.16l-0.31-0.21l-3.16,0.84l0.84-3.05L3,14.21
	c-0.84-1.32-1.28-2.86-1.26-4.42c0.01-4.53,3.68-8.21,8.21-8.21c2.18-0.03,4.28,0.85,5.79,2.42c1.56,1.52,2.43,3.61,2.42,5.79
	c0.12,4.47-3.4,8.19-7.86,8.31C10.22,18.1,10.13,18.11,10.05,18.11z"/>
</svg>
