<?xml version="1.0" encoding="utf-8"?>
<!-- Generator: Adobe Illustrator 26.3.1, SVG Export Plug-In . SVG Version: 6.00 Build 0)  -->
<svg version="1.1" id="Capa_1" xmlns="http://www.w3.org/2000/svg" xmlns:xlink="http://www.w3.org/1999/xlink" x="0px" y="0px"
	 viewBox="0 0 20 20" style="enable-background:new 0 0 20 20;" xml:space="preserve">
<style type="text/css">
	.st0{fill:#85CAC8;}
</style>
<path class="st0" d="M4.18,20c-0.49-0.09-0.97-0.23-1.38-0.54c-0.3,0.28-0.64,0.43-1.03,0.34c-0.21-0.05-0.43-0.15-0.61-0.28
	c-0.23-0.18-0.43-0.4-0.63-0.61c-0.4-0.44-0.41-1.07-0.04-1.53c0.03-0.03,0.06-0.07,0.09-0.11c-0.24-0.38-0.42-0.78-0.48-1.23
	c-0.14-0.97,0.14-1.81,0.82-2.52c0.38-0.39,0.77-0.78,1.16-1.16c0.08-0.08,0.1-0.14,0.07-0.26c-0.24-0.89-0.33-1.79-0.25-2.71
	C1.93,9.11,2.03,8.98,2.22,9c0.19,0.02,0.29,0.17,0.27,0.44c-0.13,1.82,0.35,3.46,1.39,4.95c0.57,0.82,1.5,1.66,2.19,2.02
	c0.35-0.35,0.71-0.71,1.07-1.07c0.31-0.31,0.69-0.42,1.11-0.32c0.83,0.21,1.14,1.21,0.57,1.85c-0.14,0.15-0.31,0.28-0.44,0.45
	c1.32,0.32,2.62,0.27,3.89-0.14c1.77-0.57,3.15-1.66,4.15-3.24c-0.37-0.37-0.74-0.73-1.1-1.1c-0.51-0.53-0.43-1.34,0.16-1.75
	c0.43-0.3,1.01-0.26,1.4,0.11c0.15,0.14,0.26,0.3,0.39,0.45c0.03-0.01,0.06-0.03,0.08-0.04c0.04-0.31,0.11-0.62,0.13-0.94
	c0.02-0.49,0-0.99,0-1.48c0-0.23,0.15-0.39,0.34-0.34c0.16,0.04,0.24,0.16,0.24,0.31c0,0.57,0.02,1.13-0.01,1.7
	c-0.02,0.38-0.13,0.75-0.19,1.13c-0.01,0.08,0.02,0.19,0.07,0.25c0.36,0.38,0.74,0.75,1.11,1.12c1.07,1.07,1.24,2.48,0.45,3.78
	c-0.01,0.02-0.02,0.05-0.04,0.08c0.28,0.3,0.41,0.65,0.34,1.07c-0.11,0.6-1.06,1.46-1.63,1.48c-0.35,0.01-0.65-0.12-0.91-0.36
	c-0.38,0.25-0.79,0.42-1.24,0.48c-0.97,0.13-1.8-0.15-2.5-0.82c-0.39-0.38-0.78-0.77-1.16-1.16c-0.08-0.08-0.15-0.11-0.27-0.08
	c-1.35,0.36-2.71,0.37-4.07,0.04c-0.07-0.02-0.19,0.02-0.25,0.07c-0.42,0.41-0.83,0.82-1.25,1.24c-0.08,0.08-0.16,0.15-0.25,0.22
	c-0.15,0.1-0.32,0.08-0.42-0.05c-0.1-0.13-0.08-0.28,0.05-0.4c0.68-0.67,1.36-1.34,2.04-2.01c0.13-0.13,0.27-0.26,0.4-0.4
	c0.23-0.24,0.24-0.57,0.02-0.79c-0.22-0.22-0.56-0.23-0.8,0.01c-0.64,0.63-1.27,1.27-1.91,1.9c-0.48,0.48-0.89,0.55-1.47,0.26
	c-0.15,0.2-0.28,0.4-0.44,0.59c-0.16,0.18-0.34,0.34-0.53,0.52c0.49,0.31,0.99,0.43,1.54,0.37c0.06-0.01,0.13-0.02,0.19-0.02
	c0.17,0,0.3,0.1,0.32,0.25c0.02,0.15-0.08,0.28-0.25,0.33C4.94,19.97,4.87,19.98,4.8,20C4.6,20,4.39,20,4.18,20z M19.04,16.78
	c0.05-0.08,0.09-0.15,0.13-0.22c0.44-0.92,0.27-1.97-0.47-2.72c-0.71-0.72-1.43-1.43-2.14-2.14c-0.03-0.03-0.06-0.06-0.09-0.08
	c-0.19-0.15-0.39-0.18-0.6-0.07c-0.21,0.11-0.33,0.29-0.29,0.53c0.03,0.15,0.11,0.31,0.22,0.42c0.63,0.65,1.27,1.29,1.92,1.92
	c0.22,0.22,0.37,0.47,0.36,0.78c-0.01,0.23-0.08,0.45-0.13,0.69C18.4,16.01,18.65,16.47,19.04,16.78z M0.77,18.11
	c0.08,0.15,0.12,0.3,0.21,0.41c0.17,0.2,0.37,0.39,0.56,0.57c0.23,0.21,0.57,0.22,0.79-0.01C2.7,18.73,3.06,18.37,3.41,18
	c0.24-0.25,0.23-0.57-0.01-0.82C3.23,17,3.05,16.82,2.87,16.65c-0.25-0.23-0.58-0.23-0.82,0.01C1.69,16.99,1.34,17.34,1,17.7
	C0.9,17.81,0.85,17.96,0.77,18.11z M16.42,17.54c0.09,0.16,0.15,0.32,0.25,0.43c0.33,0.35,0.67,0.69,1.02,1.02
	c0.26,0.25,0.59,0.25,0.85,0.01c0.17-0.17,0.34-0.34,0.51-0.51c0.26-0.27,0.26-0.6-0.01-0.87c-0.34-0.34-0.68-0.68-1.02-1.02
	c-0.26-0.25-0.59-0.26-0.85-0.01c-0.17,0.17-0.35,0.33-0.51,0.51C16.57,17.23,16.51,17.38,16.42,17.54z M2.39,12.89
	c-0.36,0.36-0.72,0.71-1.07,1.07c-0.36,0.37-0.58,0.82-0.64,1.33c-0.07,0.55,0.04,1.07,0.35,1.56c0.18-0.19,0.34-0.37,0.52-0.53
	c0.18-0.16,0.39-0.29,0.59-0.44c-0.26-0.65-0.2-0.99,0.33-1.51c0.14-0.14,0.3-0.27,0.43-0.39C2.72,13.59,2.56,13.25,2.39,12.89z
	 M16.82,18.97c-0.31-0.38-0.76-0.64-0.9-1.13c-0.69,0.28-1.03,0.21-1.55-0.31c-0.14-0.14-0.28-0.29-0.4-0.43
	c-0.38,0.18-0.72,0.34-1.1,0.51c0.46,0.44,0.89,0.9,1.37,1.28C14.98,19.48,16.1,19.48,16.82,18.97z M16.02,15.46
	c0.25,0.31,0.28,0.42,0.14,0.57c-0.13,0.14-0.26,0.11-0.56-0.12c-0.37,0.29-0.74,0.59-1.1,0.87c0.16,0.17,0.32,0.37,0.51,0.54
	c0.18,0.16,0.45,0.15,0.63-0.02c0.59-0.57,1.17-1.15,1.74-1.74c0.19-0.19,0.17-0.47-0.01-0.68c-0.16-0.18-0.33-0.34-0.5-0.52
	C16.57,14.74,16.3,15.1,16.02,15.46z M4.54,16.03c-0.31,0.25-0.42,0.27-0.57,0.13c-0.13-0.13-0.11-0.25,0.12-0.56
	c-0.3-0.37-0.59-0.74-0.88-1.1C3.04,14.66,2.85,14.81,2.69,15c-0.17,0.19-0.15,0.47,0.03,0.66c0.56,0.57,1.12,1.14,1.7,1.7
	c0.21,0.2,0.49,0.19,0.71,0c0.17-0.16,0.33-0.33,0.5-0.49C5.26,16.58,4.9,16.31,4.54,16.03z"/>
<path class="st0" d="M0,4.14c0.12-0.36,0.24-0.72,0.37-1.08c0.03-0.1,0.1-0.18,0.16-0.27C0.25,2.48,0.12,2.13,0.19,1.71
	c0.11-0.6,1.08-1.47,1.66-1.48C2.18,0.23,2.35,0.3,2.74,0.59c0.37-0.24,0.77-0.41,1.22-0.48c0.97-0.14,1.81,0.14,2.52,0.82
	C6.87,1.3,7.25,1.69,7.63,2.07c0.09,0.09,0.16,0.11,0.29,0.08c1.35-0.36,2.71-0.37,4.07-0.03c0.12,0.03,0.19,0,0.27-0.08
	c0.36-0.37,0.73-0.74,1.1-1.11c1.07-1.07,2.49-1.24,3.78-0.45c0.02,0.01,0.05,0.02,0.08,0.04c0.3-0.27,0.64-0.41,1.05-0.34
	c0.61,0.1,1.48,1.06,1.5,1.64c0.01,0.35-0.12,0.65-0.36,0.91c0.24,0.38,0.42,0.78,0.48,1.22c0.14,0.95-0.12,1.78-0.78,2.48
	c-0.45,0.48-0.92,0.94-1.39,1.4c-0.23,0.23-0.44,0.18-0.55-0.14c-0.58-1.69-1.59-3.06-3.1-4.04c-0.04-0.02-0.08-0.05-0.13-0.08
	c-0.36,0.36-0.72,0.72-1.07,1.08c-0.24,0.24-0.52,0.37-0.86,0.35c-0.48-0.02-0.82-0.25-1.01-0.68c-0.19-0.43-0.13-0.85,0.19-1.2
	c0.14-0.16,0.32-0.28,0.51-0.45c-2.67-0.72-6.31,0.36-8.1,3.38c0.36,0.36,0.73,0.72,1.08,1.08c0.35,0.36,0.44,0.86,0.24,1.3
	C4.57,9.17,3.65,9.33,3.07,8.77C2.31,8.02,1.56,7.26,0.81,6.5C0.45,6.14,0.22,5.71,0.09,5.22C0.06,5.09,0.03,4.95,0,4.81
	C0,4.59,0,4.36,0,4.14z M16.78,0.96c-0.09-0.05-0.15-0.09-0.22-0.12c-0.91-0.44-1.97-0.27-2.7,0.45c-0.68,0.67-1.35,1.34-2.02,2.01
	c-0.07,0.07-0.15,0.14-0.22,0.22c-0.15,0.18-0.18,0.42-0.06,0.62c0.12,0.21,0.3,0.32,0.53,0.27c0.15-0.03,0.3-0.12,0.41-0.23
	c0.65-0.64,1.29-1.29,1.94-1.93c0.37-0.37,0.85-0.44,1.31-0.21c0.04,0.02,0.08,0.03,0.12,0.05C16.02,1.59,16.47,1.35,16.78,0.96z
	 M0.95,3.22C0.91,3.31,0.86,3.38,0.83,3.45C0.38,4.37,0.56,5.42,1.3,6.17C2.01,6.89,2.72,7.6,3.44,8.31
	c0.03,0.03,0.06,0.06,0.09,0.08c0.19,0.15,0.39,0.18,0.6,0.07c0.21-0.11,0.33-0.29,0.29-0.53C4.38,7.78,4.3,7.62,4.2,7.51
	C3.57,6.86,2.92,6.23,2.28,5.59C2.05,5.36,1.9,5.08,1.92,4.76c0.01-0.21,0.09-0.41,0.14-0.63C1.6,3.99,1.35,3.53,0.95,3.22z
	 M19.23,1.89c-0.08-0.15-0.12-0.3-0.21-0.4c-0.17-0.2-0.37-0.39-0.56-0.57c-0.25-0.23-0.58-0.22-0.82,0.02
	c-0.35,0.34-0.69,0.68-1.03,1.03c-0.25,0.26-0.25,0.59,0,0.85c0.17,0.17,0.34,0.34,0.51,0.51c0.26,0.25,0.6,0.25,0.85,0.01
	c0.35-0.34,0.7-0.68,1.03-1.04C19.1,2.2,19.15,2.04,19.23,1.89z M3.57,2.46C3.49,2.31,3.44,2.15,3.34,2.05C3,1.69,2.65,1.34,2.3,1
	c-0.25-0.24-0.58-0.24-0.84,0C1.29,1.16,1.12,1.33,0.95,1.5c-0.26,0.27-0.26,0.6,0,0.87C1.29,2.72,1.63,3.06,1.98,3.4
	c0.25,0.24,0.58,0.24,0.84,0C3,3.23,3.18,3.07,3.34,2.88C3.44,2.76,3.49,2.62,3.57,2.46z M17.84,4.08c0.01,0.03,0.02,0.06,0.03,0.08
	c0.24,0.53,0.17,0.97-0.25,1.39c-0.15,0.15-0.3,0.29-0.44,0.44c-0.03,0.03-0.06,0.11-0.05,0.14c0.15,0.33,0.3,0.65,0.46,0.99
	c0.37-0.36,0.73-0.71,1.09-1.08c0.49-0.51,0.7-1.12,0.65-1.82c-0.03-0.38-0.14-0.73-0.35-1.05C18.59,3.49,18.34,3.93,17.84,4.08z
	 M4.07,2.16c0.68-0.28,1.04-0.21,1.54,0.3C5.76,2.61,5.9,2.77,6.02,2.9C6.41,2.72,6.76,2.56,7.1,2.39C6.74,2.03,6.39,1.66,6.03,1.31
	C5.52,0.82,4.9,0.62,4.21,0.67C3.83,0.7,3.49,0.81,3.17,1.02C3.48,1.41,3.93,1.66,4.07,2.16z M14.37,3.14
	c0.37,0.29,0.73,0.56,1.09,0.84c0.31-0.24,0.42-0.27,0.56-0.13c0.13,0.13,0.11,0.25-0.12,0.56c0.29,0.37,0.59,0.74,0.88,1.1
	c0.18-0.17,0.37-0.32,0.53-0.51c0.17-0.2,0.15-0.48-0.04-0.67c-0.55-0.56-1.11-1.12-1.67-1.67c-0.22-0.21-0.5-0.21-0.72-0.01
	C14.7,2.81,14.54,2.97,14.37,3.14z M3.13,5.62c0.28-0.37,0.56-0.73,0.84-1.09C3.73,4.23,3.7,4.12,3.83,3.98
	c0.05-0.05,0.13-0.11,0.18-0.09c0.14,0.04,0.27,0.12,0.41,0.18C4.78,3.79,5.15,3.5,5.52,3.2C5.35,3.03,5.2,2.85,5.02,2.7
	c-0.2-0.18-0.48-0.17-0.68,0.02c-0.57,0.56-1.14,1.13-1.7,1.7c-0.2,0.21-0.19,0.49,0,0.71C2.8,5.29,2.97,5.46,3.13,5.62z"/>
<path class="st0" d="M8.57,13.22c-0.09,0.15-0.14,0.3-0.24,0.4c-0.46,0.43-0.94,0.85-1.41,1.26c-0.26,0.23-0.58,0.2-0.81-0.06
	c-0.49-0.55-0.99-1.11-1.48-1.66c-0.27-0.31-0.26-0.61,0.05-0.88c0.45-0.4,0.9-0.81,1.36-1.2c0.27-0.24,0.58-0.22,0.83,0.05
	c0.5,0.56,1.01,1.12,1.5,1.7C8.44,12.91,8.49,13.06,8.57,13.22z M5.6,13.37c0.46-0.41,0.91-0.82,1.37-1.24
	c-0.19-0.22-0.37-0.42-0.56-0.64c-0.47,0.41-0.92,0.82-1.38,1.23C5.23,12.94,5.41,13.15,5.6,13.37z M6.54,14.42
	C7,14.01,7.46,13.61,7.92,13.2c-0.19-0.22-0.37-0.42-0.56-0.62c-0.47,0.42-0.91,0.82-1.37,1.23C6.18,14.01,6.35,14.21,6.54,14.42z"
	/>
<path class="st0" d="M13.03,9.82c-0.15-0.09-0.32-0.14-0.43-0.25c-0.51-0.55-1.01-1.12-1.5-1.69c-0.22-0.26-0.21-0.59,0.05-0.82
	c0.69-0.62,1.39-1.24,2.09-1.85c0.24-0.21,0.58-0.19,0.79,0.05c0.52,0.57,1.03,1.14,1.53,1.72c0.22,0.26,0.2,0.59-0.06,0.82
	c-0.68,0.61-1.37,1.22-2.06,1.82C13.33,9.71,13.18,9.74,13.03,9.82z M15.11,7.35c-0.51-0.57-1-1.13-1.51-1.7
	c-0.69,0.61-1.38,1.22-2.08,1.84c0.51,0.57,1,1.13,1.51,1.7C13.73,8.58,14.41,7.98,15.11,7.35z"/>
</svg>
