<?xml version="1.0" encoding="utf-8"?>
<!-- Generator: Adobe Illustrator 26.3.1, SVG Export Plug-In . SVG Version: 6.00 Build 0)  -->
<svg version="1.1" id="Capa_1" xmlns="http://www.w3.org/2000/svg" xmlns:xlink="http://www.w3.org/1999/xlink" x="0px" y="0px"
	 viewBox="0 0 20 20" style="enable-background:new 0 0 20 20;" xml:space="preserve">
<style type="text/css">
	.st0{fill:#85CAC8;}
</style>
<g>
	<path class="st0" d="M9.84,0.02c0.02,0.01,0.05,0.03,0.07,0.03c0.46,0.15,0.72,0.48,0.72,0.97c0.01,0.67,0.01,1.34,0,2.01
		c0,0.14,0.02,0.21,0.19,0.24c0.83,0.14,1.42,0.82,1.45,1.67c0.02,0.49,0.01,0.99,0,1.48c-0.01,0.53-0.32,0.93-0.83,1.08
		c-0.04,0.01-0.07,0.02-0.15,0.04c0.1,0.08,0.19,0.14,0.26,0.21c0.33,0.33,0.69,0.64,0.98,0.99c0.41,0.5,0.48,1.07,0.28,1.69
		c-0.14,0.43-0.26,0.87-0.38,1.31c-0.02,0.06-0.02,0.13-0.02,0.19c-0.03,0.53,0.01,0.57,0.52,0.69c0.86,0.2,1.73,0.33,2.56,0.65
		c0.78,0.3,1.17,0.95,1,1.77c-0.23,1.09-0.45,2.17-0.67,3.26c-0.01,0.04-0.01,0.08-0.01,0.14c0.58,0.11,1.15,0.25,1.34,0.93
		c0.54,0,1.07,0,1.6,0c0.29,0,0.58,0,0.88,0c0.22,0,0.35,0.13,0.35,0.31c0,0.18-0.13,0.31-0.35,0.31c-0.03,0-0.06,0-0.1,0
		c-6.35,0-12.71,0-19.06,0c-0.19,0-0.34-0.04-0.45-0.2c0-0.08,0-0.16,0-0.23c0.11-0.16,0.26-0.2,0.45-0.2c0.88,0.01,1.77,0,2.65,0
		c0.07,0,0.14,0,0.23,0c-0.15-0.39-0.3-0.76-0.44-1.13c-0.22-0.57-0.09-0.99,0.42-1.33c0.63-0.42,1.27-0.81,1.87-1.26
		c0.61-0.46,1.18-0.98,1.77-1.46c0.75-0.61,1.51-1.2,2.27-1.81c0.05-0.04,0.09-0.14,0.08-0.21c-0.02-0.29-0.05-0.57-0.07-0.85
		c-0.02-0.23,0.09-0.38,0.28-0.39c0.18-0.01,0.31,0.12,0.33,0.33c0.03,0.3,0.06,0.61,0.09,0.93c0.33,0.04,0.65,0.08,0.98,0.13
		c0.16,0.02,0.29,0.1,0.29,0.26c0,0.1-0.06,0.23-0.14,0.31c-0.06,0.05-0.18,0.05-0.28,0.04c-0.25-0.02-0.49-0.06-0.73-0.09
		c-0.06-0.01-0.13-0.01-0.19-0.02c-0.25,0.67,0.13,1.52,0.77,1.75c0.37,0.14,0.76,0.2,1.16,0.21c0.9,0.02,1.8,0.07,2.71,0.11
		c0.32,0.02,0.41,0.13,0.38,0.45c-0.03,0.35-0.08,0.7-0.12,1.06c0.25,0,0.5,0,0.77,0c0.06-0.27,0.12-0.55,0.17-0.84
		c0.05-0.24,0.1-0.48,0.15-0.72c0.08-0.45-0.13-0.8-0.56-0.96c-0.69-0.26-1.4-0.42-2.12-0.55c-0.31-0.06-0.61-0.12-0.91-0.21
		c-0.12-0.04-0.25-0.14-0.31-0.25c-0.27-0.49-0.23-1.02-0.09-1.54c0.1-0.36,0.21-0.72,0.34-1.08c0.14-0.4,0.09-0.79-0.17-1.1
		c-0.3-0.35-0.64-0.66-0.97-0.97c-0.1-0.1-0.23-0.17-0.34-0.26c-0.1-0.08-0.19-0.13-0.34-0.06c-0.15,0.07-0.33-0.06-0.37-0.23
		c-0.02-0.08-0.02-0.17-0.02-0.25c0-2.06,0-4.12,0-6.18c0-0.08,0-0.17-0.01-0.25C9.97,0.75,9.86,0.65,9.68,0.65
		C9.5,0.64,9.39,0.74,9.34,0.91c0,0.01,0,0.01,0,0.02c-0.06,0.28-0.18,0.4-0.38,0.36c-0.2-0.04-0.3-0.23-0.23-0.5
		c0.1-0.41,0.38-0.65,0.77-0.77C9.61,0.02,9.73,0.02,9.84,0.02z M13.84,19.35c-0.07-0.66,0.19-1.27,0.23-1.91
		c0.04-0.65,0.14-1.29,0.21-1.95c-0.09-0.01-0.16-0.02-0.23-0.03c-0.71-0.03-1.43-0.04-2.14-0.08c-0.39-0.02-0.77-0.1-1.15-0.14
		c-0.08-0.01-0.17,0-0.24,0.03c-0.75,0.33-1.49,0.67-2.24,1c-1.12,0.51-2.23,1.03-3.24,1.74c-0.06,0.04-0.14,0.11-0.13,0.16
		c0.06,0.39,0.13,0.78,0.2,1.17C8.03,19.35,10.93,19.35,13.84,19.35z M9.2,13.15c-0.23,0.19-0.43,0.34-0.63,0.51
		c-0.86,0.72-1.72,1.44-2.58,2.17C5.94,15.87,5.88,15.96,5.89,16c0.06,0.2,0.15,0.4,0.22,0.59c1.27-0.58,2.53-1.16,3.8-1.74
		C9.41,14.4,9.22,13.83,9.2,13.15z M5.33,16.31c-0.6,0.4-1.18,0.79-1.76,1.18c-0.14,0.1-0.17,0.25-0.12,0.4
		c0.14,0.36,0.27,0.73,0.43,1.08c0.1,0.24,0.31,0.35,0.58,0.38c0-0.06,0-0.1-0.01-0.15c-0.06-0.38-0.12-0.75-0.2-1.13
		c-0.04-0.2,0.02-0.33,0.18-0.43c0.22-0.13,0.43-0.27,0.64-0.41c0.16-0.11,0.42-0.2,0.45-0.33C5.57,16.75,5.41,16.53,5.33,16.31z
		 M14.75,17.04c-0.01,0.02-0.02,0.03-0.02,0.04c-0.09,0.61-0.19,1.23-0.28,1.84c-0.04,0.26,0.1,0.43,0.37,0.43c0.46,0,0.92,0,1.38,0
		c0.08,0,0.16,0,0.24,0c0-0.02,0.01-0.04,0.01-0.06c-0.1-0.05-0.2-0.11-0.3-0.14c-0.24-0.07-0.49-0.13-0.73-0.19
		c-0.23-0.06-0.32-0.19-0.27-0.43c0.02-0.13,0.05-0.25,0.08-0.38c0.07-0.37,0.15-0.73,0.22-1.12
		C15.19,17.04,14.97,17.04,14.75,17.04z M11.64,5.02c-0.31,0.12-0.61,0.23-0.9,0.36c-0.05,0.02-0.1,0.11-0.1,0.18
		c-0.01,0.31,0,0.62,0,0.94c0,0.42,0.01,0.42,0.43,0.43c0.03,0,0.07,0,0.1,0c0.25-0.02,0.46-0.19,0.47-0.42
		C11.65,5.99,11.64,5.49,11.64,5.02z M10.65,4.75c0.32-0.08,0.56-0.23,0.75-0.48c-0.2-0.23-0.44-0.37-0.75-0.4
		C10.65,4.17,10.65,4.44,10.65,4.75z"/>
	<path class="st0" d="M8.7,5.42c-0.15-0.04-0.28-0.06-0.4-0.11c-0.43-0.18-0.67-0.65-0.55-1.1C7.82,3.97,7.9,3.73,8,3.51
		c0.11-0.26,0.28-0.38,0.69-0.55c0.08-0.52-0.03-0.98-0.46-1.33C8.2,1.6,8.16,1.56,8.13,1.52c-0.11-0.14-0.1-0.31,0.01-0.42
		c0.12-0.12,0.29-0.13,0.42-0.01C9.02,1.5,9.34,1.97,9.34,2.63c-0.02,1.53,0,3.07,0,4.6c0,0.23-0.02,0.46,0.17,0.65
		c0.08,0.09,0.07,0.27,0.09,0.41c0.02,0.15,0.04,0.3,0.04,0.45c0,0.18-0.11,0.31-0.27,0.32C9.19,9.08,9.06,8.98,9.02,8.8
		C9,8.73,9,8.66,8.99,8.59C8.98,8.38,8.95,8.18,8.83,7.98C8.74,7.85,8.72,7.66,8.71,7.5c-0.01-0.64,0-1.29-0.01-1.93
		C8.71,5.52,8.7,5.47,8.7,5.42z M8.7,3.64C8.65,3.67,8.62,3.69,8.61,3.71C8.52,3.94,8.41,4.18,8.36,4.42
		C8.32,4.61,8.46,4.73,8.7,4.76C8.7,4.39,8.7,4.03,8.7,3.64z"/>
	<path class="st0" d="M9.44,10.31c-0.17,0-0.3-0.13-0.31-0.31c0-0.18,0.13-0.32,0.31-0.32c0.17,0,0.3,0.15,0.3,0.31
		C9.75,10.17,9.61,10.31,9.44,10.31z"/>
</g>
</svg>
