<?xml version="1.0" encoding="utf-8"?>
<!-- Generator: Adobe Illustrator 26.3.1, SVG Export Plug-In . SVG Version: 6.00 Build 0)  -->
<svg version="1.1" id="Capa_1" xmlns="http://www.w3.org/2000/svg" xmlns:xlink="http://www.w3.org/1999/xlink" x="0px" y="0px"
	 viewBox="0 0 20 20" style="enable-background:new 0 0 20 20;" xml:space="preserve">
<style type="text/css">
	.st0{fill:#FFFFFF;}
</style>
<path id="Trazado_864-2" class="st0" d="M0.03,9.99c0-1.94-0.04-3.88,0.01-5.82c0.13-2.16,1.82-3.91,3.97-4.11
	C5.62-0.03,7.24,0.01,8.86,0c2.14,0,4.28,0,6.42,0c2.51-0.09,4.62,1.87,4.71,4.38c0,0.11,0,0.21,0,0.32c0,3.57,0,7.14,0,10.71
	c0.03,2.04-1.32,3.84-3.28,4.39c-0.42,0.12-0.85,0.18-1.28,0.19C11.84,20,8.25,20,4.67,20c-2.27,0.07-4.25-1.56-4.61-3.81
	c-0.03-0.2-0.05-0.39-0.05-0.59c-0.01-0.2,0-0.4,0-0.6L0.03,9.99L0.03,9.99z M18.89,9.98c0-1.78,0.01-3.56,0-5.34
	c0.07-1.88-1.4-3.46-3.28-3.53c-0.08,0-0.16,0-0.24,0c-3.61,0-7.22,0-10.82,0C2.65,1.1,1.11,2.62,1.1,4.51c0,0.01,0,0.02,0,0.04
	c0,3.58,0.03,7.17-0.01,10.75c-0.03,1.95,1.52,3.56,3.48,3.6c0.04,0,0.08,0,0.12,0c3.55-0.05,7.09-0.05,10.64,0
	c1.94,0.04,3.53-1.5,3.57-3.44c0-0.05,0-0.1,0-0.14C18.86,13.54,18.89,11.76,18.89,9.98L18.89,9.98z"/>
<g id="_8xaNhf" transform="translate(4286.625 5155.125)">
	<g id="Grupo_797" transform="translate(271.375 1680.875)">
		<path id="Trazado_995" class="st0" d="M-4549.1-6830.81h1.81c0.03,0,0.05,0.01,0.08,0.01c1,0.04,2.01,0.06,3.01,0.11
			c0.41,0.02,0.81,0.06,1.21,0.14c0.69,0.11,1.24,0.63,1.38,1.32c0.06,0.23,0.09,0.46,0.12,0.69c0.03,0.16,0.04,0.32,0.06,0.48v4.04
			c-0.01,0.03-0.01,0.05-0.02,0.08c-0.05,0.36-0.09,0.72-0.16,1.08c-0.12,0.74-0.71,1.31-1.45,1.4c-0.49,0.07-0.98,0.12-1.47,0.15
			c-0.71,0.04-1.43,0.06-2.14,0.07c-1.84,0.04-3.68,0.02-5.52-0.1c-0.4-0.03-0.8-0.07-1.2-0.14c-0.54-0.08-1.01-0.43-1.25-0.93
			c-0.12-0.25-0.19-0.53-0.22-0.81c-0.1-0.73-0.16-1.47-0.17-2.21c0-0.04-0.01-0.07-0.01-0.11v-0.91c0-0.03,0.01-0.05,0.01-0.08
			c0.02-0.38,0.03-0.76,0.05-1.15c0.02-0.51,0.09-1.02,0.2-1.53c0.13-0.69,0.68-1.23,1.37-1.34c0.43-0.08,0.87-0.13,1.31-0.15
			c0.91-0.05,1.83-0.07,2.74-0.1C-4549.26-6830.8-4549.18-6830.81-4549.1-6830.81z M-4545.98-6826.02l-3.56-2.05v4.11
			L-4545.98-6826.02z"/>
	</g>
</g>
</svg>
